
	<svg xmlns="http://www.w3.org/2000/svg" xmlns:xlink="http://www.w3.org/1999/xlink" version="1.1" width="128" height="128" viewBox="0 0 100 100">

		<defs>
			<g id="background">
<path fill="url(#background-gradient)" stroke="none" d=" M 100 18.4 Q 100 10.8 94.6 5.4 89.05 0 81.6 0 L 18.4 0 Q 10.8 0 5.4 5.4 0 10.8 0 18.4 L 0 81.6 Q 0 89.05 5.4 94.6 10.8 100 18.4 100 L 81.6 100 Q 89.05 100 94.6 94.6 100 89.05 100 81.6 L 100 18.4 Z"/>
</g><g id="middle-1">
<path fill="#FFFFFF" fill-opacity="0.30196078431372547" stroke="none" d=" M 100 19.2 Q 100 11.15 94.4 5.65 88.75 0 80.8 0 L 19.2 0 Q 11.15 0 5.65 5.65 0 11.15 0 19.2 L 0 80.8 Q 0 88.75 5.65 94.4 11.15 100 19.2 100 L 80.8 100 Q 88.75 100 94.4 94.4 100 88.75 100 80.8 L 100 19.2 M 82.5 6.1 Q 87.2 6.1 90.55 9.45 93.8 12.7 93.8 17.4 L 93.8 82.5 Q 93.8 87.2 90.55 90.55 87.2 93.8 82.5 93.8 L 17.4 93.8 Q 12.7 93.8 9.45 90.55 6.1 87.2 6.1 82.5 L 6.1 17.4 Q 6.1 12.7 9.45 9.45 12.7 6.1 17.4 6.1 L 82.5 6.1 Z"/>
</g><mask id="mask">
<path fill="#FFFFFF" stroke="none" d=" M 100 18.4 Q 100 10.8 94.6 5.4 89.05 0 81.6 0 L 18.4 0 Q 10.8 0 5.4 5.4 0 10.8 0 18.4 L 0 81.6 Q 0 89.05 5.4 94.6 10.8 100 18.4 100 L 81.6 100 Q 89.05 100 94.6 94.6 100 89.05 100 81.6 L 100 18.4 Z"/>
</mask>
			
	<linearGradient id="background-gradient" x1="0" y1="0" y2="1" x2="0" >
		<stop stop-color="#0038f2" offset="0%"/>
		<stop stop-color="#0038f2" offset="100%"/>
	</linearGradient>

			
			
			<g transform="scale(1.0395660395525563) translate(3.0999999046325684 3.0934925079345703)" id="picture"><path d="M38.63 48.88l-4.724 1.214c.204 1.553.352 2.493.37 2.608 1.867 12.594 1.508 15.486-6.827 20.368-1.08.625-2.16 1.292-3.25 1.957-4.25 2.606-8.64 5.305-11.787 5.303-1.1 0-4.02 0-5.563-8.092-4.835-25.292 4.487-42.01 13.158-51.58 1.87-2.063 3.73-3.154 5.376-3.154 3.5 0 6.7 5.264 6.856 11.266.083 3.305.25 6.433.452 9.27l4.71-2.084c-.145-2.3-.262-4.752-.33-7.31-.2-7.854-4.625-15.978-11.687-15.978-3.093 0-6.11 1.596-8.96 4.743C7.025 27.8-3.1 45.9 2.11 73.15c1.524 7.975 4.995 12.02 10.315 12.02 4.508 0 9.493-3.06 14.313-6.018 1.058-.65 2.116-1.297 3.157-1.91 11.375-6.656 11-12.89 9.165-25.272-.01-.034-.184-1.16-.428-3.087zm34.937-31.47c-2.85-3.146-5.864-4.742-8.96-4.742-7.06 0-11.487 8.124-11.687 15.977-.066 2.54-.184 4.975-.327 7.26l4.712 2.086c.2-2.82.366-5.93.45-9.22.152-6 3.354-11.26 6.854-11.26 1.64 0 3.5 1.09 5.37 3.157 8.67 9.57 17.99 26.288 13.16 51.58-1.55 8.09-4.47 8.09-5.57 8.09-3.142 0-7.536-2.694-11.783-5.3-1.088-.668-2.173-1.333-3.24-1.958-8.336-4.88-8.694-7.773-6.83-20.343.02-.124.17-1.08.376-2.663l-4.724-1.21c-.25 1.95-.43 3.097-.436 3.14C49.1 64.36 48.724 70.594 60.1 77.25c1.042.614 2.098 1.26 3.156 1.91 4.82 2.958 9.804 6.017 14.312 6.017 5.32 0 8.79-4.044 10.312-12.017 5.214-27.26-4.906-45.36-14.32-55.748z M75.69 49.546l-7.76-2.9 4.608-4.047c.272-.28.307-.71.083-1.03-.22-.315-.64-.45-.98-.266l-6.714 4.124-4.117-1.66 5.73-9.34c.19-.366.067-.813-.278-1.038-.344-.226-.803-.15-1.06.17l-7.09 9.127-9.563-4.27V4.83h-6.89v33.59l-9.566 4.27-7.086-9.124c-.257-.322-.716-.397-1.06-.173-.346.225-.47.672-.28 1.04l5.732 9.34-4.12 1.658-6.715-4.123c-.348-.19-.767-.05-.99.26-.223.314-.19.744.083 1.02l4.61 4.046-7.76 2.9c-.393.16-.595.59-.467.99s.55.632.95.536l10.5-2.976-4.89 10.39c-.175.383-.02.836.347 1.034l.08.034c.354.145.77.02.98-.31l6.7-11.11c.242-.346.403-.635.525-.857l.078-.106 15.8-4.01 15.79 4.02.074.11c.123.222.283.51.525.856l6.69 11.11c.21.33.622.456.98.31.023-.01.05-.024.072-.035.37-.19.52-.65.352-1.03L64.702 48.1 75.2 51.072c.408.097.822-.134.952-.534s-.075-.83-.465-.99z"/></g>
			
	<linearGradient id="picture-gradient" x1="0" y1="0" y2="1" x2="0" >
		<stop stop-color="#ffffff" offset="0%"/>
		<stop stop-color="#ffffff" offset="100%"/>
	</linearGradient>

		</defs>

		

			<use xlink:href="#background" fill="url(#background-gradient)" />

		<use xlink:href="#middle-1" />

			<g mask="url(#mask)">
				<g transform="
				        translate(
                                50 50
)
                            translate(0 0)  scale(0.7)  
                            translate(
                                -50 -50
)">
						<use xlink:href="#picture" fill="url(#picture-gradient)"  />
				</g>
			</g>

		


	</svg>
