
	<svg xmlns="http://www.w3.org/2000/svg" xmlns:xlink="http://www.w3.org/1999/xlink" version="1.1" width="256" height="256" viewBox="0 0 100 100">

		<defs>
			<linearGradient id="middle-1-gradient" gradientUnits="userSpaceOnUse" x1="50" y1="98" x2="50" y2="2" spreadMethod="pad">
			<stop offset="0%" stop-color="#FFFFFF" stop-opacity="0.1"/>
			<stop offset="100%" stop-color="#FFFFFF" stop-opacity="0.5"/>
		</linearGradient><linearGradient id="gloss-top-gradient" gradientUnits="userSpaceOnUse" x1="50" y1="70" x2="50" y2="6" spreadMethod="pad">
			<stop offset="0%" stop-color="#FFFFFF" stop-opacity="0"/>
			<stop offset="100%" stop-color="#FFFFFF" stop-opacity="0.4"/>
		</linearGradient><linearGradient id="gloss-right-gradient" gradientUnits="userSpaceOnUse" x1="37" y1="24" x2="92" y2="57" spreadMethod="pad">
			<stop offset="0%" stop-color="#FFFFFF" stop-opacity="0"/>
			<stop offset="100%" stop-color="#FFFFFF" stop-opacity="0.4"/>
		</linearGradient><linearGradient id="gloss-left-gradient" gradientUnits="userSpaceOnUse" x1="63" y1="57" x2="8" y2="24" spreadMethod="pad">
			<stop offset="0%" stop-color="#FFFFFF" stop-opacity="0"/>
			<stop offset="100%" stop-color="#FFFFFF" stop-opacity="0.4"/>
		</linearGradient><g id="background">
			<path fill="url(#background-gradient)" stroke="none" d=" M 96.1 30.55 Q 92.25 21.6 85.35 14.65 78.45 7.75 69.5 3.95 60.2 0 50.05 0 39.85 0 30.55 3.95 21.55 7.75 14.65 14.65 7.75 21.6 3.95 30.55 0 39.85 0 50.05 0 60.2 3.95 69.5 7.75 78.45 14.65 85.35 21.55 92.25 30.55 96.1 39.85 100 50.05 100 60.2 100 69.5 96.1 78.45 92.25 85.35 85.35 92.25 78.45 96.1 69.5 100 60.2 100 50.05 100 39.85 96.1 30.55 Z"/>
		</g><g id="middle-1">
			<path fill="url(#middle-1-gradient)" stroke="none" d=" M 94.1 31.45 Q 90.45 22.85 83.85 16.2 77.2 9.6 68.65 6 59.75 2.2 50.05 2.2 40.3 2.2 31.4 6 22.8 9.6 16.2 16.2 9.6 22.85 5.95 31.45 2.2 40.3 2.2 50.05 2.2 59.75 5.95 68.65 9.6 77.2 16.2 83.85 22.8 90.45 31.4 94.1 40.3 97.85 50.05 97.85 59.75 97.85 68.65 94.1 77.2 90.45 83.85 83.85 90.45 77.2 94.1 68.65 97.85 59.75 97.85 50.05 97.85 40.3 94.1 31.45 M 82.5 17.55 Q 88.85 23.9 92.4 32.15 96 40.7 96 50.05 96 59.4 92.4 67.9 88.85 76.15 82.5 82.5 76.15 88.85 67.9 92.4 59.4 96 50.05 96 40.7 96 32.15 92.4 23.9 88.85 17.55 82.5 11.15 76.15 7.65 67.9 4.05 59.4 4.05 50.05 4.05 40.7 7.65 32.15 11.15 23.9 17.55 17.55 23.9 11.15 32.15 7.7 40.7 4.05 50.05 4.05 59.4 4.05 67.9 7.7 76.15 11.15 82.5 17.55 Z"/>
		</g><mask id="mask">
			<path fill="#FFFFFF" stroke="none" d=" M 96.1 30.5 Q 92.25 21.55 85.35 14.65 78.45 7.7 69.5 3.9 60.2 0 50.05 0 39.85 0 30.55 3.9 21.55 7.7 14.65 14.65 7.75 21.55 3.95 30.5 0 39.85 0 50 0 60.15 3.95 69.45 7.75 78.4 14.65 85.3 21.55 92.25 30.55 96.05 39.85 100 50.05 100 60.2 100 69.5 96.05 78.45 92.25 85.35 85.3 92.25 78.4 96.1 69.45 100 60.15 100 50 100 39.85 96.1 30.5 Z"/>
		</mask><g id="gloss-top">
			<path fill="url(#gloss-top-gradient)" stroke="none" d=" M 81.5 40.8 Q 84.2 36.05 84.2 30.9 84.2 25.7 81.5 21 78.95 16.4 74.2 12.9 64.2 5.45 50.05 5.45 35.8 5.45 25.8 12.9 15.8 20.35 15.8 30.9 15.8 41.45 25.8 48.9 35.8 56.35 50.05 56.35 64.2 56.35 74.2 48.9 78.95 45.4 81.5 40.8 Z"/>
		</g><g id="gloss-left">
			<path fill="url(#gloss-left-gradient)" stroke="none" d=" M 72.2 5.2 Q 61.75 0 50.05 0 39.85 0 30.55 3.95 21.55 7.75 14.65 14.65 7.75 21.6 3.95 30.55 0 39.85 0 50.05 0 59.65 3.55 68.6 7 77.15 13.3 84 13.5 78.65 17.05 71.95 24 58.6 40.6 51.7 57.1 44.85 66.3 24.35 69.15 17.95 70.95 10.95 72.2 5.25 72.2 5.2 Z"/>
		</g><g id="gloss-right">
			<path fill="url(#gloss-right-gradient)" stroke="none" d=" M 96.1 30.55 Q 92.25 21.6 85.35 14.65 78.45 7.75 69.45 3.95 60.15 0 50 0 38.25 0 27.8 5.2 27.8 5.25 29 10.95 30.85 17.95 33.7 24.35 42.9 44.85 59.4 51.7 76 58.6 83 71.95 86.5 78.65 86.7 84 93 77.15 96.45 68.6 100 59.65 100 50.05 100 39.85 96.1 30.55 Z"/>
		</g><g id="x-icon">
			<path fill="#FF0000" fill-opacity="0" stroke="none" d=" M 57.8 42.2 L 42.2 42.2 42.2 57.8 57.8 57.8 57.8 42.2 Z"/>
		</g><linearGradient id="x-background-gradient" x1="0" y1="0" y2="1" x2="0">
			<stop stop-color="#22D3B3" offset="0%"/>
			<stop stop-color="#01163E" offset="100%"/>
		</linearGradient>
			
	<linearGradient id="background-gradient" x1="0" y1="0" y2="1" x2="0" >
		<stop stop-color="#4ADCFD" offset="0%"/>
		<stop stop-color="#0634A7" offset="100%"/>
	</linearGradient>

			
			
			<g transform="scale(1.0395660395525563) translate(3.0999999046325684 3.0934925079345703)" id="picture"><path d="M38.63 48.88l-4.724 1.214c.204 1.553.352 2.493.37 2.608 1.867 12.594 1.508 15.486-6.827 20.368-1.08.625-2.16 1.292-3.25 1.957-4.25 2.606-8.64 5.305-11.787 5.303-1.1 0-4.02 0-5.563-8.092-4.835-25.292 4.487-42.01 13.158-51.58 1.87-2.063 3.73-3.154 5.376-3.154 3.5 0 6.7 5.264 6.856 11.266.083 3.305.25 6.433.452 9.27l4.71-2.084c-.145-2.3-.262-4.752-.33-7.31-.2-7.854-4.625-15.978-11.687-15.978-3.093 0-6.11 1.596-8.96 4.743C7.025 27.8-3.1 45.9 2.11 73.15c1.524 7.975 4.995 12.02 10.315 12.02 4.508 0 9.493-3.06 14.313-6.018 1.058-.65 2.116-1.297 3.157-1.91 11.375-6.656 11-12.89 9.165-25.272-.01-.034-.184-1.16-.428-3.087zm34.937-31.47c-2.85-3.146-5.864-4.742-8.96-4.742-7.06 0-11.487 8.124-11.687 15.977-.066 2.54-.184 4.975-.327 7.26l4.712 2.086c.2-2.82.366-5.93.45-9.22.152-6 3.354-11.26 6.854-11.26 1.64 0 3.5 1.09 5.37 3.157 8.67 9.57 17.99 26.288 13.16 51.58-1.55 8.09-4.47 8.09-5.57 8.09-3.142 0-7.536-2.694-11.783-5.3-1.088-.668-2.173-1.333-3.24-1.958-8.336-4.88-8.694-7.773-6.83-20.343.02-.124.17-1.08.376-2.663l-4.724-1.21c-.25 1.95-.43 3.097-.436 3.14C49.1 64.36 48.724 70.594 60.1 77.25c1.042.614 2.098 1.26 3.156 1.91 4.82 2.958 9.804 6.017 14.312 6.017 5.32 0 8.79-4.044 10.312-12.017 5.214-27.26-4.906-45.36-14.32-55.748z M75.69 49.546l-7.76-2.9 4.608-4.047c.272-.28.307-.71.083-1.03-.22-.315-.64-.45-.98-.266l-6.714 4.124-4.117-1.66 5.73-9.34c.19-.366.067-.813-.278-1.038-.344-.226-.803-.15-1.06.17l-7.09 9.127-9.563-4.27V4.83h-6.89v33.59l-9.566 4.27-7.086-9.124c-.257-.322-.716-.397-1.06-.173-.346.225-.47.672-.28 1.04l5.732 9.34-4.12 1.658-6.715-4.123c-.348-.19-.767-.05-.99.26-.223.314-.19.744.083 1.02l4.61 4.046-7.76 2.9c-.393.16-.595.59-.467.99s.55.632.95.536l10.5-2.976-4.89 10.39c-.175.383-.02.836.347 1.034l.08.034c.354.145.77.02.98-.31l6.7-11.11c.242-.346.403-.635.525-.857l.078-.106 15.8-4.01 15.79 4.02.074.11c.123.222.283.51.525.856l6.69 11.11c.21.33.622.456.98.31.023-.01.05-.024.072-.035.37-.19.52-.65.352-1.03L64.702 48.1 75.2 51.072c.408.097.822-.134.952-.534s-.075-.83-.465-.99z"/></g>
			
	<linearGradient id="picture-gradient" x1="0" y1="0" y2="1" x2="0" >
		<stop stop-color="#ffffff" offset="0%"/>
		<stop stop-color="#ffffff" offset="100%"/>
	</linearGradient>

		</defs>

		

			<use xlink:href="#background" fill="url(#background-gradient)" />

		<use xlink:href="#middle-1" />

			<g mask="url(#mask)">
				<g transform="
				        translate(
                                50 50
)
                            translate(0 0)  scale(0.7)  
                            translate(
                                -50 -50
)">
						<use xlink:href="#picture" fill="url(#picture-gradient)"  />
				</g>
			</g>

		

			<use xlink:href="#gloss-top" opacity="1" />

	</svg>
