
	<svg xmlns="http://www.w3.org/2000/svg" xmlns:xlink="http://www.w3.org/1999/xlink" version="1.1" width="128" height="128" viewBox="0 0 100 100">

		<defs>
			<g id="background">
<path fill="url(#background-gradient)" stroke="none" d=" M 100 18.4 Q 100 10.8 94.6 5.4 89.05 0 81.6 0 L 18.4 0 Q 10.8 0 5.4 5.4 0 10.8 0 18.4 L 0 81.6 Q 0 89.05 5.4 94.6 10.8 100 18.4 100 L 81.6 100 Q 89.05 100 94.6 94.6 100 89.05 100 81.6 L 100 18.4 Z"/>
</g><g id="middle-1">
<path fill="#FFFFFF" fill-opacity="0.30196078431372547" stroke="none" d=" M 100 19.2 Q 100 11.15 94.4 5.65 88.75 0 80.8 0 L 19.2 0 Q 11.15 0 5.65 5.65 0 11.15 0 19.2 L 0 80.8 Q 0 88.75 5.65 94.4 11.15 100 19.2 100 L 80.8 100 Q 88.75 100 94.4 94.4 100 88.75 100 80.8 L 100 19.2 M 82.5 6.1 Q 87.2 6.1 90.55 9.45 93.8 12.7 93.8 17.4 L 93.8 82.5 Q 93.8 87.2 90.55 90.55 87.2 93.8 82.5 93.8 L 17.4 93.8 Q 12.7 93.8 9.45 90.55 6.1 87.2 6.1 82.5 L 6.1 17.4 Q 6.1 12.7 9.45 9.45 12.7 6.1 17.4 6.1 L 82.5 6.1 Z"/>
</g><mask id="mask">
<path fill="#FFFFFF" stroke="none" d=" M 100 18.4 Q 100 10.8 94.6 5.4 89.05 0 81.6 0 L 18.4 0 Q 10.8 0 5.4 5.4 0 10.8 0 18.4 L 0 81.6 Q 0 89.05 5.4 94.6 10.8 100 18.4 100 L 81.6 100 Q 89.05 100 94.6 94.6 100 89.05 100 81.6 L 100 18.4 Z"/>
</mask>
			
	<linearGradient id="background-gradient" x1="0" y1="0" y2="1" x2="0" >
		<stop stop-color="#0038f2" offset="0%"/>
		<stop stop-color="#0038f2" offset="100%"/>
	</linearGradient>

			
			
			<g transform="scale(1.1045574455491067) translate(-4.619004249572754 -4.739002227783203)" id="picture"><path d="M94.393 28.046c-.827-1.096-2.35-1.512-3.93-1.032l-11.505 3.488-2.75-14.424c-.41-2.167-2.136-3.68-4.193-3.68-.4 0-.8.06-1.185.177l-36.342 11.02-.21-1.104c-.413-2.16-2.138-3.67-4.194-3.67-.4 0-.797.06-1.185.177l-16.49 5c-2.24.68-3.62 3.13-3.15 5.58l.24 1.27c.03.15-.02.29-.07.354l-1.19.36c-2.236.68-3.62 3.13-3.15 5.58l8.84 46.35c.04.225.104.43.173.64-.086.823.105 1.617.578 2.245.594.787 1.547 1.237 2.617 1.237.422 0 .863-.07 1.31-.21l62.585-18.975c1.858-.563 3.557-2.193 4.038-3.875l9.626-33.62c.297-1.045.127-2.095-.468-2.884zM9.6 36.274c-.028-.152.023-.293.063-.357l1.197-.362c2.23-.678 3.614-3.127 3.148-5.575l-.242-1.27c-.03-.152.022-.293.062-.357L29.8 23.51l.212 1.11c.413 2.162 2.136 3.672 4.19 3.672.4 0 .8-.06 1.183-.177l36.346-11.02 2.82 14.745-46.67 14.153c-1.856.563-3.553 2.19-4.034 3.872l-6.99 24.43-7.25-38.02zm71.236 26.98c-.04.092-.156.223-.297.354-.04.013-.06.025-.07.035l-61.11 18.53 8.88-31.013c.093-.214.574-.66.964-.777l60.574-18.38-8.94 31.253z"/></g>
			
	<linearGradient id="picture-gradient" x1="0" y1="0" y2="1" x2="0" >
		<stop stop-color="#ffffff" offset="0%"/>
		<stop stop-color="#ffffff" offset="100%"/>
	</linearGradient>

		</defs>

		

			<use xlink:href="#background" fill="url(#background-gradient)" />

		<use xlink:href="#middle-1" />

			<g mask="url(#mask)">
				<g transform="
				        translate(
                                50 50
)
                            translate(0 0)  scale(0.7)  
                            translate(
                                -50 -50
)">
						<use xlink:href="#picture" fill="url(#picture-gradient)"  />
				</g>
			</g>

		


	</svg>
