
	<svg xmlns="http://www.w3.org/2000/svg" xmlns:xlink="http://www.w3.org/1999/xlink" version="1.1" width="256" height="256" viewBox="0 0 100 100">

		<defs>
			<linearGradient id="middle-1-gradient" gradientUnits="userSpaceOnUse" x1="50" y1="98" x2="50" y2="2" spreadMethod="pad">
			<stop offset="0%" stop-color="#FFFFFF" stop-opacity="0.1"/>
			<stop offset="100%" stop-color="#FFFFFF" stop-opacity="0.5"/>
		</linearGradient><linearGradient id="gloss-top-gradient" gradientUnits="userSpaceOnUse" x1="50" y1="70" x2="50" y2="6" spreadMethod="pad">
			<stop offset="0%" stop-color="#FFFFFF" stop-opacity="0"/>
			<stop offset="100%" stop-color="#FFFFFF" stop-opacity="0.4"/>
		</linearGradient><linearGradient id="gloss-right-gradient" gradientUnits="userSpaceOnUse" x1="37" y1="24" x2="92" y2="57" spreadMethod="pad">
			<stop offset="0%" stop-color="#FFFFFF" stop-opacity="0"/>
			<stop offset="100%" stop-color="#FFFFFF" stop-opacity="0.4"/>
		</linearGradient><linearGradient id="gloss-left-gradient" gradientUnits="userSpaceOnUse" x1="63" y1="57" x2="8" y2="24" spreadMethod="pad">
			<stop offset="0%" stop-color="#FFFFFF" stop-opacity="0"/>
			<stop offset="100%" stop-color="#FFFFFF" stop-opacity="0.4"/>
		</linearGradient><g id="background">
			<path fill="url(#background-gradient)" stroke="none" d=" M 96.1 30.55 Q 92.25 21.6 85.35 14.65 78.45 7.75 69.5 3.95 60.2 0 50.05 0 39.85 0 30.55 3.95 21.55 7.75 14.65 14.65 7.75 21.6 3.95 30.55 0 39.85 0 50.05 0 60.2 3.95 69.5 7.75 78.45 14.65 85.35 21.55 92.25 30.55 96.1 39.85 100 50.05 100 60.2 100 69.5 96.1 78.45 92.25 85.35 85.35 92.25 78.45 96.1 69.5 100 60.2 100 50.05 100 39.85 96.1 30.55 Z"/>
		</g><g id="middle-1">
			<path fill="url(#middle-1-gradient)" stroke="none" d=" M 94.1 31.45 Q 90.45 22.85 83.85 16.2 77.2 9.6 68.65 6 59.75 2.2 50.05 2.2 40.3 2.2 31.4 6 22.8 9.6 16.2 16.2 9.6 22.85 5.95 31.45 2.2 40.3 2.2 50.05 2.2 59.75 5.95 68.65 9.6 77.2 16.2 83.85 22.8 90.45 31.4 94.1 40.3 97.85 50.05 97.85 59.75 97.85 68.65 94.1 77.2 90.45 83.85 83.85 90.45 77.2 94.1 68.65 97.85 59.75 97.85 50.05 97.85 40.3 94.1 31.45 M 82.5 17.55 Q 88.85 23.9 92.4 32.15 96 40.7 96 50.05 96 59.4 92.4 67.9 88.85 76.15 82.5 82.5 76.15 88.85 67.9 92.4 59.4 96 50.05 96 40.7 96 32.15 92.4 23.9 88.85 17.55 82.5 11.15 76.15 7.65 67.9 4.05 59.4 4.05 50.05 4.05 40.7 7.65 32.15 11.15 23.9 17.55 17.55 23.9 11.15 32.15 7.7 40.7 4.05 50.05 4.05 59.4 4.05 67.9 7.7 76.15 11.15 82.5 17.55 Z"/>
		</g><mask id="mask">
			<path fill="#FFFFFF" stroke="none" d=" M 96.1 30.5 Q 92.25 21.55 85.35 14.65 78.45 7.7 69.5 3.9 60.2 0 50.05 0 39.85 0 30.55 3.9 21.55 7.7 14.65 14.65 7.75 21.55 3.95 30.5 0 39.85 0 50 0 60.15 3.95 69.45 7.75 78.4 14.65 85.3 21.55 92.25 30.55 96.05 39.85 100 50.05 100 60.2 100 69.5 96.05 78.45 92.25 85.35 85.3 92.25 78.4 96.1 69.45 100 60.15 100 50 100 39.85 96.1 30.5 Z"/>
		</mask><g id="gloss-top">
			<path fill="url(#gloss-top-gradient)" stroke="none" d=" M 81.5 40.8 Q 84.2 36.05 84.2 30.9 84.2 25.7 81.5 21 78.95 16.4 74.2 12.9 64.2 5.45 50.05 5.45 35.8 5.45 25.8 12.9 15.8 20.35 15.8 30.9 15.8 41.45 25.8 48.9 35.8 56.35 50.05 56.35 64.2 56.35 74.2 48.9 78.95 45.4 81.5 40.8 Z"/>
		</g><g id="gloss-left">
			<path fill="url(#gloss-left-gradient)" stroke="none" d=" M 72.2 5.2 Q 61.75 0 50.05 0 39.85 0 30.55 3.95 21.55 7.75 14.65 14.65 7.75 21.6 3.95 30.55 0 39.85 0 50.05 0 59.65 3.55 68.6 7 77.15 13.3 84 13.5 78.65 17.05 71.95 24 58.6 40.6 51.7 57.1 44.85 66.3 24.35 69.15 17.95 70.95 10.95 72.2 5.25 72.2 5.2 Z"/>
		</g><g id="gloss-right">
			<path fill="url(#gloss-right-gradient)" stroke="none" d=" M 96.1 30.55 Q 92.25 21.6 85.35 14.65 78.45 7.75 69.45 3.95 60.15 0 50 0 38.25 0 27.8 5.2 27.8 5.25 29 10.95 30.85 17.95 33.7 24.35 42.9 44.85 59.4 51.7 76 58.6 83 71.95 86.5 78.65 86.7 84 93 77.15 96.45 68.6 100 59.65 100 50.05 100 39.85 96.1 30.55 Z"/>
		</g><g id="x-icon">
			<path fill="#FF0000" fill-opacity="0" stroke="none" d=" M 57.8 42.2 L 42.2 42.2 42.2 57.8 57.8 57.8 57.8 42.2 Z"/>
		</g><linearGradient id="x-background-gradient" x1="0" y1="0" y2="1" x2="0">
			<stop stop-color="#22D3B3" offset="0%"/>
			<stop stop-color="#01163E" offset="100%"/>
		</linearGradient>
			
	<linearGradient id="background-gradient" x1="0" y1="0" y2="1" x2="0" >
		<stop stop-color="#4ADCFD" offset="0%"/>
		<stop stop-color="#0634A7" offset="100%"/>
	</linearGradient>

			
			
			<g transform="scale(1.1111111111111112) translate(-5 -5.000497817993164)" id="picture"><path d="M78.904 63.18l-7.894-7.894 5.858-2.844c.4-.192.642-.61.615-1.054-.022-.445-.318-.83-.736-.972l-9.558-3.288V27.902h2.37c.61 0 1.1-.49 1.1-1.098 0-.604-.49-1.098-1.1-1.098h-2.37V15.32c0-.61-.498-1.1-1.1-1.1H20.132c-.61 0-1.098.49-1.098 1.1v10.386h-2.542c-.604 0-1.098.494-1.098 1.098 0 .61.494 1.098 1.098 1.098h2.542v25.89c0 .604.49 1.098 1.098 1.098h37.02l3.87 11.25c.147.416.532.707.97.735.446.033.863-.214 1.055-.615l2.847-5.858 7.89 7.895c.208.203.488.318.78.318.054 0 .114-.005.17-.016l.098-.03c.038-.008.077-.018.115-.035.02 0 .03-.005.04-.01.13-.056.254-.138.358-.237l3.564-3.563c.203-.2.324-.48.324-.772 0-.29-.12-.57-.323-.78zM21.232 16.417h43.76v22.3L53.7 27.43c-.413-.412-1.143-.412-1.555 0L36.867 42.703l-5.11-5.106c-.413-.412-1.143-.412-1.555 0l-8.97 8.965V16.417zm0 36.277V49.67l9.75-9.745 5.11 5.11c.413.413 1.137.413 1.55 0L52.92 29.76l12.072 12.067v4.546l-9.997-3.44c-.428-.15-.884-.012-1.164.306h-.01c-.3.282-.42.73-.28 1.15l2.86 8.3H21.23zm53.335 13.27l-8.207-8.207c-.253-.253-.61-.362-.96-.307-.352.06-.65.285-.808.604l-2.355 4.86-3.25-9.444c-.01-.038-.022-.07-.038-.104l-2.63-7.653 17.2 5.918-4.86 2.36c-.327.16-.55.46-.607.81-.06.35.055.71.302.96l8.212 8.21-2.01 2.004z M75.34 68.297c-.103.104-.224.187-.356.236.132-.055.252-.137.357-.236zm8.255-40.393h-7.013c-.606 0-1.098-.492-1.098-1.098s.492-1.098 1.098-1.098h7.013c.606 0 1.098.492 1.098 1.098s-.492 1.098-1.098 1.098zm10.307 3.294c-.606 0-1.098-.492-1.098-1.098v-2.196h-2.196c-.606 0-1.098-.492-1.098-1.098s.492-1.098 1.098-1.098h3.294c.606 0 1.098.492 1.098 1.098V30.1c0 .607-.492 1.098-1.098 1.098zm0 43.96c-.606 0-1.098-.492-1.098-1.098v-7.326c0-.606.492-1.098 1.098-1.098S95 66.126 95 66.734v7.326c0 .607-.492 1.098-1.098 1.098zm0-14.653c-.606 0-1.098-.492-1.098-1.098V52.08c0-.606.492-1.098 1.098-1.098S95 51.474 95 52.08v7.327c0 .606-.492 1.098-1.098 1.098zm0-14.653c-.606 0-1.098-.492-1.098-1.098v-7.327c0-.606.492-1.098 1.098-1.098S95 36.82 95 37.42v7.327c0 .606-.492 1.1-1.098 1.1zm0 39.928h-3.294c-.606 0-1.098-.493-1.098-1.1 0-.605.492-1.097 1.098-1.097h2.196v-2.196c0-.606.492-1.098 1.098-1.098S95 80.78 95 81.38v3.294c0 .606-.492 1.1-1.098 1.1zm-9.542 0h-6.246c-.606 0-1.098-.493-1.098-1.1 0-.605.492-1.097 1.098-1.097h6.247c.61 0 1.1.492 1.1 1.098 0 .61-.49 1.1-1.1 1.1zm-12.494 0H65.62c-.607 0-1.1-.493-1.1-1.1 0-.605.493-1.097 1.1-1.097h6.246c.606 0 1.098.492 1.098 1.098 0 .61-.492 1.1-1.098 1.1zm-12.495 0h-6.24c-.602 0-1.094-.493-1.094-1.1 0-.605.49-1.097 1.097-1.097h6.247c.606 0 1.1.492 1.1 1.098 0 .61-.494 1.1-1.1 1.1zm-12.49 0h-6.25c-.6 0-1.1-.493-1.1-1.1 0-.605.5-1.097 1.1-1.097h6.25c.608 0 1.1.492 1.1 1.098 0 .61-.49 1.1-1.1 1.1zm-12.49 0h-6.25c-.605 0-1.1-.493-1.1-1.1 0-.605.49-1.097 1.1-1.097h6.247c.606 0 1.098.492 1.098 1.098 0 .61-.49 1.1-1.097 1.1zm-12.494 0h-6.25c-.605 0-1.097-.493-1.097-1.1 0-.605.49-1.097 1.097-1.097h6.248c.607 0 1.1.492 1.1 1.098 0 .61-.493 1.1-1.1 1.1zm-12.496 0H6.1c-.606 0-1.098-.493-1.098-1.1v-3.293c0-.606.493-1.098 1.1-1.098s1.097.49 1.097 1.09v2.194h2.194c.606 0 1.098.492 1.098 1.1 0 .605-.49 1.1-1.097 1.1zM6.1 75.158c-.606 0-1.098-.49-1.098-1.098v-7.327c0-.606.493-1.098 1.1-1.098s1.097.492 1.097 1.098v7.327c0 .607-.494 1.098-1.1 1.098zm0-14.653c-.606 0-1.098-.492-1.098-1.098V52.08c0-.606.493-1.098 1.1-1.098S7.2 51.474 7.2 52.08v7.327c0 .606-.493 1.098-1.1 1.098zm0-14.654c-.607 0-1.1-.49-1.1-1.09v-7.33c0-.606.492-1.1 1.098-1.1s1.098.49 1.098 1.1v7.325c0 .607-.492 1.098-1.098 1.098zm0-14.65c-.607 0-1.1-.49-1.1-1.1v-3.293c0-.606.492-1.098 1.098-1.098h3.294c.606 0 1.098.49 1.098 1.097s-.492 1.098-1.098 1.098H7.196V30.1c0 .607-.492 1.098-1.098 1.098zm27.505 1.7c-3 0-5.438-2.44-5.438-5.435 0-3 2.44-5.44 5.438-5.44s5.438 2.44 5.438 5.436c0 2.998-2.432 5.438-5.43 5.438zm0-8.68c-1.788 0-3.242 1.457-3.242 3.24 0 1.79 1.46 3.246 3.25 3.246 1.787 0 3.24-1.455 3.24-3.242s-1.454-3.24-3.242-3.24z"/></g>
			
	<linearGradient id="picture-gradient" x1="0" y1="0" y2="1" x2="0" >
		<stop stop-color="#ffffff" offset="0%"/>
		<stop stop-color="#ffffff" offset="100%"/>
	</linearGradient>

		</defs>

		

			<use xlink:href="#background" fill="url(#background-gradient)" />

		<use xlink:href="#middle-1" />

			<g mask="url(#mask)">
				<g transform="
				        translate(
                                50 50
)
                            translate(0 0)  scale(0.7)  
                            translate(
                                -50 -50
)">
						<use xlink:href="#picture" fill="url(#picture-gradient)"  />
				</g>
			</g>

		

			<use xlink:href="#gloss-top" opacity="1" />

	</svg>
