
	<svg xmlns="http://www.w3.org/2000/svg" xmlns:xlink="http://www.w3.org/1999/xlink" version="1.1" width="256" height="256" viewBox="0 0 100 100">

		<defs>
			<g id="background">
<path fill="url(#background-gradient)" stroke="none" d=" M 100 18.4 Q 100 10.8 94.6 5.4 89.05 0 81.6 0 L 18.4 0 Q 10.8 0 5.4 5.4 0 10.8 0 18.4 L 0 81.6 Q 0 89.05 5.4 94.6 10.8 100 18.4 100 L 81.6 100 Q 89.05 100 94.6 94.6 100 89.05 100 81.6 L 100 18.4 Z"/>
</g><g id="middle-1">
<path fill="#FFFFFF" fill-opacity="0.30196078431372547" stroke="none" d=" M 100 19.2 Q 100 11.15 94.4 5.65 88.75 0 80.8 0 L 19.2 0 Q 11.15 0 5.65 5.65 0 11.15 0 19.2 L 0 80.8 Q 0 88.75 5.65 94.4 11.15 100 19.2 100 L 80.8 100 Q 88.75 100 94.4 94.4 100 88.75 100 80.8 L 100 19.2 M 82.5 6.1 Q 87.2 6.1 90.55 9.45 93.8 12.7 93.8 17.4 L 93.8 82.5 Q 93.8 87.2 90.55 90.55 87.2 93.8 82.5 93.8 L 17.4 93.8 Q 12.7 93.8 9.45 90.55 6.1 87.2 6.1 82.5 L 6.1 17.4 Q 6.1 12.7 9.45 9.45 12.7 6.1 17.4 6.1 L 82.5 6.1 Z"/>
</g><mask id="mask">
<path fill="#FFFFFF" stroke="none" d=" M 100 18.4 Q 100 10.8 94.6 5.4 89.05 0 81.6 0 L 18.4 0 Q 10.8 0 5.4 5.4 0 10.8 0 18.4 L 0 81.6 Q 0 89.05 5.4 94.6 10.8 100 18.4 100 L 81.6 100 Q 89.05 100 94.6 94.6 100 89.05 100 81.6 L 100 18.4 Z"/>
</mask>
			
	<linearGradient id="background-gradient" x1="0" y1="0" y2="1" x2="0" >
		<stop stop-color="#0038f2" offset="0%"/>
		<stop stop-color="#0038f2" offset="100%"/>
	</linearGradient>

			
			
			<g transform="scale(0.7692307692307693) translate(14.999504089355469 0)" id="picture"><path d="M78.276 3.106L75.816 0v3.106M100 30.552l-2.462-3.11-.038-.048v3.158 M97.5 30.552v93.517c0 1.56-1.267 2.822-2.826 2.822H5.327c-1.56 0-2.827-1.265-2.827-2.824V5.93c0-1.56 1.265-2.824 2.827-2.824h70.49V0H2.977C1.33 0 0 1.328 0 2.967v124.065C0 128.672 1.333 130 2.976 130h94.048c1.644 0 2.977-1.328 2.977-2.968v-96.48h-2.5z M75.817 27.952c0 1.436 1.165 2.6 2.6 2.6H97.5v-3.16L78.938 3.942l-.66-.835h-2.46v24.846zm3.12-19.176L93.712 27.44l-12.172-.008c-1.436 0-2.6-1.164-2.6-2.6V8.776zM69.5 58.983H56.016V45.5c0-1.38-1.12-2.5-2.5-2.5h-7.034c-1.38 0-2.5 1.12-2.5 2.5v13.483H30.5c-1.38 0-2.5 1.12-2.5 2.5v7.035c0 1.38 1.12 2.5 2.5 2.5h13.482V84.5c0 1.38 1.12 2.5 2.5 2.5h7.034c1.38 0 2.5-1.12 2.5-2.5V71.018h13.482c1.38 0 2.5-1.12 2.5-2.5v-7.035c0-1.38-1.118-2.5-2.5-2.5z"/></g>
			
	<linearGradient id="picture-gradient" x1="0" y1="0" y2="1" x2="0" >
		<stop stop-color="#ffffff" offset="0%"/>
		<stop stop-color="#ffffff" offset="100%"/>
	</linearGradient>

		</defs>

		

			<use xlink:href="#background" fill="url(#background-gradient)" />

		<use xlink:href="#middle-1" />

			<g mask="url(#mask)">
				<g transform="
				        translate(
                                50 50
)
                            translate(0 0)  scale(0.7)  
                            translate(
                                -50 -50
)">
						<use xlink:href="#picture" fill="url(#picture-gradient)"  />
				</g>
			</g>

		


	</svg>
