
	<svg xmlns="http://www.w3.org/2000/svg" xmlns:xlink="http://www.w3.org/1999/xlink" version="1.1" width="128" height="128" viewBox="0 0 100 100">

		<defs>
			<g id="background">
<path fill="url(#background-gradient)" stroke="none" d=" M 100 18.4 Q 100 10.8 94.6 5.4 89.05 0 81.6 0 L 18.4 0 Q 10.8 0 5.4 5.4 0 10.8 0 18.4 L 0 81.6 Q 0 89.05 5.4 94.6 10.8 100 18.4 100 L 81.6 100 Q 89.05 100 94.6 94.6 100 89.05 100 81.6 L 100 18.4 Z"/>
</g><g id="middle-1">
<path fill="#FFFFFF" fill-opacity="0.30196078431372547" stroke="none" d=" M 100 19.2 Q 100 11.15 94.4 5.65 88.75 0 80.8 0 L 19.2 0 Q 11.15 0 5.65 5.65 0 11.15 0 19.2 L 0 80.8 Q 0 88.75 5.65 94.4 11.15 100 19.2 100 L 80.8 100 Q 88.75 100 94.4 94.4 100 88.75 100 80.8 L 100 19.2 M 82.5 6.1 Q 87.2 6.1 90.55 9.45 93.8 12.7 93.8 17.4 L 93.8 82.5 Q 93.8 87.2 90.55 90.55 87.2 93.8 82.5 93.8 L 17.4 93.8 Q 12.7 93.8 9.45 90.55 6.1 87.2 6.1 82.5 L 6.1 17.4 Q 6.1 12.7 9.45 9.45 12.7 6.1 17.4 6.1 L 82.5 6.1 Z"/>
</g><mask id="mask">
<path fill="#FFFFFF" stroke="none" d=" M 100 18.4 Q 100 10.8 94.6 5.4 89.05 0 81.6 0 L 18.4 0 Q 10.8 0 5.4 5.4 0 10.8 0 18.4 L 0 81.6 Q 0 89.05 5.4 94.6 10.8 100 18.4 100 L 81.6 100 Q 89.05 100 94.6 94.6 100 89.05 100 81.6 L 100 18.4 Z"/>
</mask>
			
	<linearGradient id="background-gradient" x1="0" y1="0" y2="1" x2="0" >
		<stop stop-color="#0038f2" offset="0%"/>
		<stop stop-color="#0038f2" offset="100%"/>
	</linearGradient>

			
			
			<g transform="scale(1.596271210219877) translate(-13.677001953125 -13.46400260925293)" id="picture"><path d="M27.778 74.232c-2.35 0-5.648-3.393-7.954-6.567C16.804 63.505 15 59.17 15 56.07c0-7.045 5.732-12.778 12.778-12.778s12.778 5.733 12.778 12.777c0 3.1-1.804 7.43-4.825 11.59-2.3 3.17-5.6 6.563-7.95 6.563zm0-28.716c-5.82 0-10.556 4.735-10.556 10.554 0 6.06 8.153 15.94 10.556 15.94s10.556-9.882 10.556-15.94c0-5.82-4.736-10.554-10.556-10.554zm0 14.444c-3.37 0-6.11-2.742-6.11-6.11s2.74-6.112 6.11-6.112 6.11 2.742 6.11 6.11-2.74 6.112-6.11 6.112zm0-10c-2.145 0-3.89 1.744-3.89 3.89s1.745 3.888 3.89 3.888 3.89-1.744 3.89-3.89-1.746-3.89-3.89-3.89zm34.445-5.557c-2.35 0-5.648-3.392-7.954-6.567-3.03-4.162-4.83-8.496-4.83-11.594 0-7.046 5.73-12.778 12.78-12.778S75 19.194 75 26.24c0 3.1-1.803 7.434-4.825 11.595-2.304 3.176-5.604 6.568-7.952 6.568zm0-28.717c-5.82 0-10.557 4.735-10.557 10.556 0 6.057 8.154 15.94 10.557 15.94s10.555-9.883 10.555-15.94c0-5.82-4.736-10.556-10.555-10.556zm0 14.444c-3.37 0-6.11-2.74-6.11-6.11s2.74-6.112 6.11-6.112 6.11 2.742 6.11 6.11-2.74 6.112-6.11 6.112zm0-10c-2.144 0-3.89 1.745-3.89 3.89s1.746 3.888 3.89 3.888 3.89-1.745 3.89-3.89-1.747-3.888-3.89-3.888zm-19.73 55.98c-.613 0-1.11-.494-1.11-1.106-.002-.613.493-1.112 1.107-1.115 1.528-.01 2.987-.08 4.336-.21.606-.07 1.153.382 1.213 1 .05.61-.39 1.15-1 1.21-1.42.14-2.95.21-4.55.213h-.006zm-4.443-.15c-.025 0-.05-.002-.077-.004-2.66-.184-4.446-.466-4.52-.478-.607-.097-1.02-.665-.923-1.27.096-.607.668-1.022 1.27-.924.02.003 1.772.278 4.326.456.612.042 1.075.572 1.032 1.185-.04.586-.53 1.034-1.108 1.034zm13.264-.782c-.5 0-.953-.34-1.078-.845-.146-.598.22-1.198.814-1.345 1.5-.367 2.812-.85 3.9-1.434.54-.292 1.214-.087 1.504.454s.086 1.216-.454 1.505c-1.253.672-2.74 1.222-4.42 1.635-.09.02-.178.03-.266.03zm7.54-4.365c-.24 0-.48-.077-.685-.235-.49-.377-.57-1.075-.2-1.56.74-.95 1.1-1.784 1.1-2.55 0-.204-.024-.402-.073-.605-.146-.597.22-1.197.816-1.343.596-.143 1.197.22 1.342.818.09.372.135.75.135 1.13 0 1.28-.515 2.56-1.572 3.917-.22.28-.546.428-.876.428zM57.64 63.07c-.29 0-.578-.113-.796-.337-.352-.36-.726-.73-1.11-1.105-.667-.654-1.355-1.333-2.04-2.078-.415-.452-.385-1.155.067-1.57.46-.413 1.16-.385 1.57.068.65.704 1.32 1.36 1.96 1.994.4.39.78.768 1.15 1.14.43.44.42 1.145-.02 1.572-.213.21-.492.315-.772.315zm-5.762-6.726c-.393 0-.772-.21-.975-.576-.23-.416-.435-.84-.615-1.263-.488-1.142-.79-2.273-.89-3.362-.06-.61.39-1.152 1-1.21.6-.065 1.152.39 1.21 1.002.08.857.326 1.767.725 2.698.15.356.324.714.518 1.064.3.538.1 1.214-.43 1.508-.17.094-.352.14-.533.14zm-.508-8.48c-.18 0-.363-.045-.532-.138-.538-.294-.737-.97-.442-1.507.95-1.74 2.35-2.92 3.357-3.61.508-.35 1.2-.22 1.544.29.346.503.215 1.2-.292 1.54-.807.55-1.922 1.485-2.66 2.835-.2.37-.58.58-.975.58z"/></g>
			
	<linearGradient id="picture-gradient" x1="0" y1="0" y2="1" x2="0" >
		<stop stop-color="#ffffff" offset="0%"/>
		<stop stop-color="#ffffff" offset="100%"/>
	</linearGradient>

		</defs>

		

			<use xlink:href="#background" fill="url(#background-gradient)" />

		<use xlink:href="#middle-1" />

			<g mask="url(#mask)">
				<g transform="
				        translate(
                                50 50
)
                            translate(0 0)  scale(0.6649999999999999)  
                            translate(
                                -50 -50
)">
						<use xlink:href="#picture" fill="url(#picture-gradient)"  />
				</g>
			</g>

		


	</svg>
