
	<svg xmlns="http://www.w3.org/2000/svg" xmlns:xlink="http://www.w3.org/1999/xlink" version="1.1" width="256" height="256" viewBox="0 0 100 100">

		<defs>
			<linearGradient id="middle-1-gradient" gradientUnits="userSpaceOnUse" x1="50" y1="98" x2="50" y2="2" spreadMethod="pad">
			<stop offset="0%" stop-color="#FFFFFF" stop-opacity="0.1"/>
			<stop offset="100%" stop-color="#FFFFFF" stop-opacity="0.5"/>
		</linearGradient><linearGradient id="gloss-top-gradient" gradientUnits="userSpaceOnUse" x1="50" y1="70" x2="50" y2="6" spreadMethod="pad">
			<stop offset="0%" stop-color="#FFFFFF" stop-opacity="0"/>
			<stop offset="100%" stop-color="#FFFFFF" stop-opacity="0.4"/>
		</linearGradient><linearGradient id="gloss-right-gradient" gradientUnits="userSpaceOnUse" x1="37" y1="24" x2="92" y2="57" spreadMethod="pad">
			<stop offset="0%" stop-color="#FFFFFF" stop-opacity="0"/>
			<stop offset="100%" stop-color="#FFFFFF" stop-opacity="0.4"/>
		</linearGradient><linearGradient id="gloss-left-gradient" gradientUnits="userSpaceOnUse" x1="63" y1="57" x2="8" y2="24" spreadMethod="pad">
			<stop offset="0%" stop-color="#FFFFFF" stop-opacity="0"/>
			<stop offset="100%" stop-color="#FFFFFF" stop-opacity="0.4"/>
		</linearGradient><g id="background">
			<path fill="url(#background-gradient)" stroke="none" d=" M 96.1 30.55 Q 92.25 21.6 85.35 14.65 78.45 7.75 69.5 3.95 60.2 0 50.05 0 39.85 0 30.55 3.95 21.55 7.75 14.65 14.65 7.75 21.6 3.95 30.55 0 39.85 0 50.05 0 60.2 3.95 69.5 7.75 78.45 14.65 85.35 21.55 92.25 30.55 96.1 39.85 100 50.05 100 60.2 100 69.5 96.1 78.45 92.25 85.35 85.35 92.25 78.45 96.1 69.5 100 60.2 100 50.05 100 39.85 96.1 30.55 Z"/>
		</g><g id="middle-1">
			<path fill="url(#middle-1-gradient)" stroke="none" d=" M 94.1 31.45 Q 90.45 22.85 83.85 16.2 77.2 9.6 68.65 6 59.75 2.2 50.05 2.2 40.3 2.2 31.4 6 22.8 9.6 16.2 16.2 9.6 22.85 5.95 31.45 2.2 40.3 2.2 50.05 2.2 59.75 5.95 68.65 9.6 77.2 16.2 83.85 22.8 90.45 31.4 94.1 40.3 97.85 50.05 97.85 59.75 97.85 68.65 94.1 77.2 90.45 83.85 83.85 90.45 77.2 94.1 68.65 97.85 59.75 97.85 50.05 97.85 40.3 94.1 31.45 M 82.5 17.55 Q 88.85 23.9 92.4 32.15 96 40.7 96 50.05 96 59.4 92.4 67.9 88.85 76.15 82.5 82.5 76.15 88.85 67.9 92.4 59.4 96 50.05 96 40.7 96 32.15 92.4 23.9 88.85 17.55 82.5 11.15 76.15 7.65 67.9 4.05 59.4 4.05 50.05 4.05 40.7 7.65 32.15 11.15 23.9 17.55 17.55 23.9 11.15 32.15 7.7 40.7 4.05 50.05 4.05 59.4 4.05 67.9 7.7 76.15 11.15 82.5 17.55 Z"/>
		</g><mask id="mask">
			<path fill="#FFFFFF" stroke="none" d=" M 96.1 30.5 Q 92.25 21.55 85.35 14.65 78.45 7.7 69.5 3.9 60.2 0 50.05 0 39.85 0 30.55 3.9 21.55 7.7 14.65 14.65 7.75 21.55 3.95 30.5 0 39.85 0 50 0 60.15 3.95 69.45 7.75 78.4 14.65 85.3 21.55 92.25 30.55 96.05 39.85 100 50.05 100 60.2 100 69.5 96.05 78.45 92.25 85.35 85.3 92.25 78.4 96.1 69.45 100 60.15 100 50 100 39.85 96.1 30.5 Z"/>
		</mask><g id="gloss-top">
			<path fill="url(#gloss-top-gradient)" stroke="none" d=" M 81.5 40.8 Q 84.2 36.05 84.2 30.9 84.2 25.7 81.5 21 78.95 16.4 74.2 12.9 64.2 5.45 50.05 5.45 35.8 5.45 25.8 12.9 15.8 20.35 15.8 30.9 15.8 41.45 25.8 48.9 35.8 56.35 50.05 56.35 64.2 56.35 74.2 48.9 78.95 45.4 81.5 40.8 Z"/>
		</g><g id="gloss-left">
			<path fill="url(#gloss-left-gradient)" stroke="none" d=" M 72.2 5.2 Q 61.75 0 50.05 0 39.85 0 30.55 3.95 21.55 7.75 14.65 14.65 7.75 21.6 3.95 30.55 0 39.85 0 50.05 0 59.65 3.55 68.6 7 77.15 13.3 84 13.5 78.65 17.05 71.95 24 58.6 40.6 51.7 57.1 44.85 66.3 24.35 69.15 17.95 70.95 10.95 72.2 5.25 72.2 5.2 Z"/>
		</g><g id="gloss-right">
			<path fill="url(#gloss-right-gradient)" stroke="none" d=" M 96.1 30.55 Q 92.25 21.6 85.35 14.65 78.45 7.75 69.45 3.95 60.15 0 50 0 38.25 0 27.8 5.2 27.8 5.25 29 10.95 30.85 17.95 33.7 24.35 42.9 44.85 59.4 51.7 76 58.6 83 71.95 86.5 78.65 86.7 84 93 77.15 96.45 68.6 100 59.65 100 50.05 100 39.85 96.1 30.55 Z"/>
		</g><g id="x-icon">
			<path fill="#FF0000" fill-opacity="0" stroke="none" d=" M 57.8 42.2 L 42.2 42.2 42.2 57.8 57.8 57.8 57.8 42.2 Z"/>
		</g><linearGradient id="x-background-gradient" x1="0" y1="0" y2="1" x2="0">
			<stop stop-color="#22D3B3" offset="0%"/>
			<stop stop-color="#01163E" offset="100%"/>
		</linearGradient>
			
	<linearGradient id="background-gradient" x1="0" y1="0" y2="1" x2="0" >
		<stop stop-color="#4ADCFD" offset="0%"/>
		<stop stop-color="#0634A7" offset="100%"/>
	</linearGradient>

			
			
			<g transform="scale(1.596271210219877) translate(-13.677001953125 -13.46400260925293)" id="picture"><path d="M27.778 74.232c-2.35 0-5.648-3.393-7.954-6.567C16.804 63.505 15 59.17 15 56.07c0-7.045 5.732-12.778 12.778-12.778s12.778 5.733 12.778 12.777c0 3.1-1.804 7.43-4.825 11.59-2.3 3.17-5.6 6.563-7.95 6.563zm0-28.716c-5.82 0-10.556 4.735-10.556 10.554 0 6.06 8.153 15.94 10.556 15.94s10.556-9.882 10.556-15.94c0-5.82-4.736-10.554-10.556-10.554zm0 14.444c-3.37 0-6.11-2.742-6.11-6.11s2.74-6.112 6.11-6.112 6.11 2.742 6.11 6.11-2.74 6.112-6.11 6.112zm0-10c-2.145 0-3.89 1.744-3.89 3.89s1.745 3.888 3.89 3.888 3.89-1.744 3.89-3.89-1.746-3.89-3.89-3.89zm34.445-5.557c-2.35 0-5.648-3.392-7.954-6.567-3.03-4.162-4.83-8.496-4.83-11.594 0-7.046 5.73-12.778 12.78-12.778S75 19.194 75 26.24c0 3.1-1.803 7.434-4.825 11.595-2.304 3.176-5.604 6.568-7.952 6.568zm0-28.717c-5.82 0-10.557 4.735-10.557 10.556 0 6.057 8.154 15.94 10.557 15.94s10.555-9.883 10.555-15.94c0-5.82-4.736-10.556-10.555-10.556zm0 14.444c-3.37 0-6.11-2.74-6.11-6.11s2.74-6.112 6.11-6.112 6.11 2.742 6.11 6.11-2.74 6.112-6.11 6.112zm0-10c-2.144 0-3.89 1.745-3.89 3.89s1.746 3.888 3.89 3.888 3.89-1.745 3.89-3.89-1.747-3.888-3.89-3.888zm-19.73 55.98c-.613 0-1.11-.494-1.11-1.106-.002-.613.493-1.112 1.107-1.115 1.528-.01 2.987-.08 4.336-.21.606-.07 1.153.382 1.213 1 .05.61-.39 1.15-1 1.21-1.42.14-2.95.21-4.55.213h-.006zm-4.443-.15c-.025 0-.05-.002-.077-.004-2.66-.184-4.446-.466-4.52-.478-.607-.097-1.02-.665-.923-1.27.096-.607.668-1.022 1.27-.924.02.003 1.772.278 4.326.456.612.042 1.075.572 1.032 1.185-.04.586-.53 1.034-1.108 1.034zm13.264-.782c-.5 0-.953-.34-1.078-.845-.146-.598.22-1.198.814-1.345 1.5-.367 2.812-.85 3.9-1.434.54-.292 1.214-.087 1.504.454s.086 1.216-.454 1.505c-1.253.672-2.74 1.222-4.42 1.635-.09.02-.178.03-.266.03zm7.54-4.365c-.24 0-.48-.077-.685-.235-.49-.377-.57-1.075-.2-1.56.74-.95 1.1-1.784 1.1-2.55 0-.204-.024-.402-.073-.605-.146-.597.22-1.197.816-1.343.596-.143 1.197.22 1.342.818.09.372.135.75.135 1.13 0 1.28-.515 2.56-1.572 3.917-.22.28-.546.428-.876.428zM57.64 63.07c-.29 0-.578-.113-.796-.337-.352-.36-.726-.73-1.11-1.105-.667-.654-1.355-1.333-2.04-2.078-.415-.452-.385-1.155.067-1.57.46-.413 1.16-.385 1.57.068.65.704 1.32 1.36 1.96 1.994.4.39.78.768 1.15 1.14.43.44.42 1.145-.02 1.572-.213.21-.492.315-.772.315zm-5.762-6.726c-.393 0-.772-.21-.975-.576-.23-.416-.435-.84-.615-1.263-.488-1.142-.79-2.273-.89-3.362-.06-.61.39-1.152 1-1.21.6-.065 1.152.39 1.21 1.002.08.857.326 1.767.725 2.698.15.356.324.714.518 1.064.3.538.1 1.214-.43 1.508-.17.094-.352.14-.533.14zm-.508-8.48c-.18 0-.363-.045-.532-.138-.538-.294-.737-.97-.442-1.507.95-1.74 2.35-2.92 3.357-3.61.508-.35 1.2-.22 1.544.29.346.503.215 1.2-.292 1.54-.807.55-1.922 1.485-2.66 2.835-.2.37-.58.58-.975.58z"/></g>
			
	<linearGradient id="picture-gradient" x1="0" y1="0" y2="1" x2="0" >
		<stop stop-color="#ffffff" offset="0%"/>
		<stop stop-color="#ffffff" offset="100%"/>
	</linearGradient>

		</defs>

		

			<use xlink:href="#background" fill="url(#background-gradient)" />

		<use xlink:href="#middle-1" />

			<g mask="url(#mask)">
				<g transform="
				        translate(
                                50 50
)
                            translate(0 0)  scale(0.6649999999999999)  
                            translate(
                                -50 -50
)">
						<use xlink:href="#picture" fill="url(#picture-gradient)"  />
				</g>
			</g>

		

			<use xlink:href="#gloss-top" opacity="1" />

	</svg>
