<?xml version="1.0" encoding="UTF-8" standalone="no"?>
<svg
   xmlns:dc="http://purl.org/dc/elements/1.1/"
   xmlns:cc="http://creativecommons.org/ns#"
   xmlns:rdf="http://www.w3.org/1999/02/22-rdf-syntax-ns#"
   xmlns:svg="http://www.w3.org/2000/svg"
   xmlns="http://www.w3.org/2000/svg"
   xmlns:xlink="http://www.w3.org/1999/xlink"
   xmlns:sodipodi="http://sodipodi.sourceforge.net/DTD/sodipodi-0.dtd"
   xmlns:inkscape="http://www.inkscape.org/namespaces/inkscape"
   version="1.1"
   width="256"
   height="256"
   viewBox="0 0 100 100"
   id="svg44"
   sodipodi:docname="simulator.svg"
   inkscape:version="0.92.5 (2060ec1f9f, 2020-04-08)">
  <metadata
     id="metadata48">
    <rdf:RDF>
      <cc:Work
         rdf:about="">
        <dc:format>image/svg+xml</dc:format>
        <dc:type
           rdf:resource="http://purl.org/dc/dcmitype/StillImage" />
        <dc:title />
      </cc:Work>
    </rdf:RDF>
  </metadata>
  <sodipodi:namedview
     pagecolor="#ffffff"
     bordercolor="#666666"
     borderopacity="1"
     objecttolerance="10"
     gridtolerance="10"
     guidetolerance="10"
     inkscape:pageopacity="0"
     inkscape:pageshadow="2"
     inkscape:window-width="1760"
     inkscape:window-height="930"
     id="namedview46"
     showgrid="false"
     inkscape:zoom="1.84"
     inkscape:cx="154.26331"
     inkscape:cy="204.63993"
     inkscape:window-x="72"
     inkscape:window-y="27"
     inkscape:window-maximized="0"
     inkscape:current-layer="svg44"
     inkscape:document-rotation="0" />
  <defs
     id="defs32">
    <g
       id="background">
      <path
         fill="url(#background-gradient)"
         stroke="none"
         d=" M 100 18.4 Q 100 10.8 94.6 5.4 89.05 0 81.6 0 L 18.4 0 Q 10.8 0 5.4 5.4 0 10.8 0 18.4 L 0 81.6 Q 0 89.05 5.4 94.6 10.8 100 18.4 100 L 81.6 100 Q 89.05 100 94.6 94.6 100 89.05 100 81.6 L 100 18.4 Z"
         id="path10" />
    </g>
    <g
       id="middle-1">
      <path
         fill="#FFFFFF"
         fill-opacity="0.30196078431372547"
         stroke="none"
         d=" M 100 19.2 Q 100 11.15 94.4 5.65 88.75 0 80.8 0 L 19.2 0 Q 11.15 0 5.65 5.65 0 11.15 0 19.2 L 0 80.8 Q 0 88.75 5.65 94.4 11.15 100 19.2 100 L 80.8 100 Q 88.75 100 94.4 94.4 100 88.75 100 80.8 L 100 19.2 M 82.5 6.1 Q 87.2 6.1 90.55 9.45 93.8 12.7 93.8 17.4 L 93.8 82.5 Q 93.8 87.2 90.55 90.55 87.2 93.8 82.5 93.8 L 17.4 93.8 Q 12.7 93.8 9.45 90.55 6.1 87.2 6.1 82.5 L 6.1 17.4 Q 6.1 12.7 9.45 9.45 12.7 6.1 17.4 6.1 L 82.5 6.1 Z"
         id="path13" />
    </g>
    <mask
       id="mask">
      <path
         fill="#FFFFFF"
         stroke="none"
         d=" M 100 18.4 Q 100 10.8 94.6 5.4 89.05 0 81.6 0 L 18.4 0 Q 10.8 0 5.4 5.4 0 10.8 0 18.4 L 0 81.6 Q 0 89.05 5.4 94.6 10.8 100 18.4 100 L 81.6 100 Q 89.05 100 94.6 94.6 100 89.05 100 81.6 L 100 18.4 Z"
         id="path16" />
    </mask>
    <linearGradient
       id="background-gradient"
       x1="0"
       y1="0"
       y2="1"
       x2="0">
      <stop
         stop-color="#0038f2"
         offset="0%"
         id="stop19" />
      <stop
         stop-color="#0038f2"
         offset="100%"
         id="stop21" />
    </linearGradient>
    <g
       transform="scale(1.1507479659850166) translate(-6.499995231628418 -7.09999942779541)"
       id="picture">
      <path
         d="M91.9 85.6L79.2 72.9c-.8-.8-2-1.2-3.1-1.1L74.4 70c5.9-6.7 9.2-15.2 9.2-24.3 0-9.8-3.8-19.1-10.8-26-7-6.9-16.2-10.7-26-10.7s-19.1 3.8-26 10.8c-14.3 14.3-14.3 37.7 0 52 6.9 6.9 16.2 10.8 26 10.8 9 0 17.5-3.3 24.3-9.2l1.8 1.8c-.1 1.1.2 2.2 1.1 3.1L86.7 91c.7.7 1.7 1.1 2.7 1.1 1 0 1.9-.4 2.7-1.1 1.3-1.6 1.3-4-.2-5.4zM46.8 75c-7.8 0-15.1-3-20.7-8.6-11.4-11.4-11.4-29.9 0-41.3 5.5-5.5 12.9-8.6 20.7-8.6 7.8 0 15.1 3 20.7 8.6C73 30.6 76 38 76 45.8c0 7.8-3 15.1-8.6 20.7C61.9 72 54.6 75 46.8 75z M68.7 53.8l-11.3-9.4c-.6-.5-1.3-.6-2-.3s-1.1 1-1.1 1.7v4h-9.4c-1 0-1.9.8-1.9 1.9v7.1c0 1 .8 1.9 1.9 1.9h9.4v4c0 .7.4 1.4 1.1 1.7.3.1.5.2.8.2.4 0 .9-.1 1.2-.4l11.3-9.4c.4-.4.7-.9.7-1.4s-.2-1.3-.7-1.6zM50.5 39.9v-7.1c0-1-.8-1.9-1.9-1.9h-9.4v-4c0-.7-.4-1.4-1.1-1.7-.7-.3-1.4-.2-2 .3l-11.3 9.4c-.4.4-.7.9-.7 1.4 0 .6.2 1.1.7 1.4l11.3 9.4c.3.3.8.4 1.2.4.3 0 .5-.1.8-.2.7-.3 1.1-1 1.1-1.7v-4h9.4c1.1.2 1.9-.7 1.9-1.7z"
         id="path24" />
    </g>
    <linearGradient
       id="picture-gradient"
       x1="0"
       y1="0"
       y2="1"
       x2="0">
      <stop
         stop-color="#ffffff"
         offset="0%"
         id="stop27" />
      <stop
         stop-color="#ffffff"
         offset="100%"
         id="stop29" />
    </linearGradient>
  </defs>
  <use
     xlink:href="#background"
     id="use34"
     fill="url(#background-gradient)" />
  <use
     xlink:href="#middle-1"
     id="use36" />
  <text
     xml:space="preserve"
     style="font-style:normal;font-weight:normal;font-size:75px;line-height:1.25;font-family:sans-serif;letter-spacing:0px;word-spacing:0px;fill:#ffffff;fill-opacity:1;stroke:none;stroke-width:0.390625"
     x="3.5003455"
     y="76.440208"
     id="text26"><tspan
       sodipodi:role="line"
       id="tspan24"
       x="3.5003455"
       y="76.440208"
       style="fill:#ffffff;stroke-width:0.390625">S</tspan></text>
  <text
     xml:space="preserve"
     style="font-style:normal;font-weight:normal;font-size:40.625px;line-height:1.25;font-family:sans-serif;letter-spacing:0px;word-spacing:0px;fill:#ffffff;fill-opacity:1;stroke:none;stroke-width:0.390625"
     x="45.370922"
     y="75.887138"
     id="text30"><tspan
       sodipodi:role="line"
       id="tspan28"
       x="45.370922"
       y="75.887138"
       style="fill:#ffffff;stroke-width:0.390625">im</tspan></text>
</svg>
