<?xml version="1.0" encoding="UTF-8" standalone="no"?>
<svg
   xmlns:dc="http://purl.org/dc/elements/1.1/"
   xmlns:cc="http://creativecommons.org/ns#"
   xmlns:rdf="http://www.w3.org/1999/02/22-rdf-syntax-ns#"
   xmlns:svg="http://www.w3.org/2000/svg"
   xmlns="http://www.w3.org/2000/svg"
   xmlns:xlink="http://www.w3.org/1999/xlink"
   xmlns:sodipodi="http://sodipodi.sourceforge.net/DTD/sodipodi-0.dtd"
   xmlns:inkscape="http://www.inkscape.org/namespaces/inkscape"
   version="1.1"
   width="256"
   height="256"
   viewBox="0 0 100 100"
   id="svg44"
   sodipodi:docname="vbflythrough_3.svg"
   inkscape:version="1.0.2 (e86c8708, 2021-01-15)">
  <metadata
     id="metadata48">
    <rdf:RDF>
      <cc:Work
         rdf:about="">
        <dc:format>image/svg+xml</dc:format>
        <dc:type
           rdf:resource="http://purl.org/dc/dcmitype/StillImage" />
        <dc:title></dc:title>
      </cc:Work>
    </rdf:RDF>
  </metadata>
  <sodipodi:namedview
     pagecolor="#ffffff"
     bordercolor="#666666"
     borderopacity="1"
     objecttolerance="10"
     gridtolerance="10"
     guidetolerance="10"
     inkscape:pageopacity="0"
     inkscape:pageshadow="2"
     inkscape:window-width="1261"
     inkscape:window-height="767"
     id="namedview46"
     showgrid="false"
     inkscape:zoom="1"
     inkscape:cx="109.54226"
     inkscape:cy="103.96451"
     inkscape:window-x="2025"
     inkscape:window-y="88"
     inkscape:window-maximized="0"
     inkscape:current-layer="svg44" />
  <defs
     id="defs32">
    <g
       id="background">
      <path
         fill="url(#background-gradient)"
         stroke="none"
         d=" M 100 18.4 Q 100 10.8 94.6 5.4 89.05 0 81.6 0 L 18.4 0 Q 10.8 0 5.4 5.4 0 10.8 0 18.4 L 0 81.6 Q 0 89.05 5.4 94.6 10.8 100 18.4 100 L 81.6 100 Q 89.05 100 94.6 94.6 100 89.05 100 81.6 L 100 18.4 Z"
         id="path10" />
    </g>
    <g
       id="middle-1">
      <path
         fill="#FFFFFF"
         fill-opacity="0.30196078431372547"
         stroke="none"
         d=" M 100 19.2 Q 100 11.15 94.4 5.65 88.75 0 80.8 0 L 19.2 0 Q 11.15 0 5.65 5.65 0 11.15 0 19.2 L 0 80.8 Q 0 88.75 5.65 94.4 11.15 100 19.2 100 L 80.8 100 Q 88.75 100 94.4 94.4 100 88.75 100 80.8 L 100 19.2 M 82.5 6.1 Q 87.2 6.1 90.55 9.45 93.8 12.7 93.8 17.4 L 93.8 82.5 Q 93.8 87.2 90.55 90.55 87.2 93.8 82.5 93.8 L 17.4 93.8 Q 12.7 93.8 9.45 90.55 6.1 87.2 6.1 82.5 L 6.1 17.4 Q 6.1 12.7 9.45 9.45 12.7 6.1 17.4 6.1 L 82.5 6.1 Z"
         id="path13" />
    </g>
    <mask
       id="mask">
      <path
         fill="#FFFFFF"
         stroke="none"
         d=" M 100 18.4 Q 100 10.8 94.6 5.4 89.05 0 81.6 0 L 18.4 0 Q 10.8 0 5.4 5.4 0 10.8 0 18.4 L 0 81.6 Q 0 89.05 5.4 94.6 10.8 100 18.4 100 L 81.6 100 Q 89.05 100 94.6 94.6 100 89.05 100 81.6 L 100 18.4 Z"
         id="path16" />
    </mask>
    <linearGradient
       id="background-gradient"
       x1="0"
       y1="0"
       y2="1"
       x2="0">
      <stop
         stop-color="#0038f2"
         offset="0%"
         id="stop19" />
      <stop
         stop-color="#0038f2"
         offset="100%"
         id="stop21" />
    </linearGradient>
    <g
       transform="scale(2.267573578456598) translate(-26.10000228881836 -27)"
       id="picture">
      <path
         d="M47.7 67.1c-5.3 0-10.2-2-13.9-5.8-7.7-7.7-7.7-20.2 0-27.9 3.7-3.7 8.7-5.8 13.9-5.8s10.2 2 13.9 5.8c7.7 7.7 7.7 20.2 0 27.9-3.7 3.7-8.6 5.8-13.9 5.8zm0-35.4c-4.2 0-8.1 1.6-11.1 4.6-6.1 6.1-6.1 16.1 0 22.2 3 3 6.9 4.6 11.1 4.6s8.1-1.6 11.1-4.6c6.1-6.1 6.1-16.1 0-22.2-3-3-6.9-4.6-11.1-4.6z M68 70.5c-.5 0-1-.2-1.4-.6L58.7 62c-.8-.8-.8-2 0-2.8.8-.8 2-.8 2.8 0l7.9 7.9c.8.8.8 2 0 2.8-.4.4-.9.6-1.4.6z"
         id="path24" />
    </g>
    <linearGradient
       id="picture-gradient"
       x1="0"
       y1="0"
       y2="1"
       x2="0">
      <stop
         stop-color="#ffffff"
         offset="0%"
         id="stop27" />
      <stop
         stop-color="#ffffff"
         offset="100%"
         id="stop29" />
    </linearGradient>
  </defs>
  <use
     xlink:href="#background"
     fill="url(#background-gradient)"
     id="use34" />
  <use
     xlink:href="#middle-1"
     id="use36" />
  <g
     mask="url(#mask)"
     id="g42">
    <g
       transform="             translate(                                 50 50 )                             translate(0 0)  scale(0.7)                               translate(                                 -50 -50 )"
       id="g40">
      <use
         xlink:href="#picture"
         fill="url(#picture-gradient)"
         id="use38" />
    </g>
  </g>
  <text
     xml:space="preserve"
     style="font-size:83.3332px;line-height:1.25;font-family:sans-serif;fill:#ffffff;stroke-width:0.390625"
     x="33.583206"
     y="64.767616"
     id="text70"><tspan
       sodipodi:role="line"
       id="tspan68"
       x="33.583206"
       y="64.767616"
       style="font-style:normal;font-variant:normal;font-weight:normal;font-stretch:normal;font-size:52.0833px;font-family:sans-serif;-inkscape-font-specification:'sans-serif, Normal';font-variant-ligatures:normal;font-variant-caps:normal;font-variant-numeric:normal;font-variant-east-asian:normal;fill:#ffffff;stroke-width:0.390625">3</tspan></text>
</svg>
