
	<svg xmlns="http://www.w3.org/2000/svg" xmlns:xlink="http://www.w3.org/1999/xlink" version="1.1" width="256" height="256" viewBox="0 0 100 100">

		<defs>
			<linearGradient id="middle-1-gradient" gradientUnits="userSpaceOnUse" x1="50" y1="98" x2="50" y2="2" spreadMethod="pad">
			<stop offset="0%" stop-color="#FFFFFF" stop-opacity="0.1"/>
			<stop offset="100%" stop-color="#FFFFFF" stop-opacity="0.5"/>
		</linearGradient><linearGradient id="gloss-top-gradient" gradientUnits="userSpaceOnUse" x1="50" y1="70" x2="50" y2="6" spreadMethod="pad">
			<stop offset="0%" stop-color="#FFFFFF" stop-opacity="0"/>
			<stop offset="100%" stop-color="#FFFFFF" stop-opacity="0.4"/>
		</linearGradient><linearGradient id="gloss-right-gradient" gradientUnits="userSpaceOnUse" x1="37" y1="24" x2="92" y2="57" spreadMethod="pad">
			<stop offset="0%" stop-color="#FFFFFF" stop-opacity="0"/>
			<stop offset="100%" stop-color="#FFFFFF" stop-opacity="0.4"/>
		</linearGradient><linearGradient id="gloss-left-gradient" gradientUnits="userSpaceOnUse" x1="63" y1="57" x2="8" y2="24" spreadMethod="pad">
			<stop offset="0%" stop-color="#FFFFFF" stop-opacity="0"/>
			<stop offset="100%" stop-color="#FFFFFF" stop-opacity="0.4"/>
		</linearGradient><g id="background">
			<path fill="url(#background-gradient)" stroke="none" d=" M 96.1 30.55 Q 92.25 21.6 85.35 14.65 78.45 7.75 69.5 3.95 60.2 0 50.05 0 39.85 0 30.55 3.95 21.55 7.75 14.65 14.65 7.75 21.6 3.95 30.55 0 39.85 0 50.05 0 60.2 3.95 69.5 7.75 78.45 14.65 85.35 21.55 92.25 30.55 96.1 39.85 100 50.05 100 60.2 100 69.5 96.1 78.45 92.25 85.35 85.35 92.25 78.45 96.1 69.5 100 60.2 100 50.05 100 39.85 96.1 30.55 Z"/>
		</g><g id="middle-1">
			<path fill="url(#middle-1-gradient)" stroke="none" d=" M 94.1 31.45 Q 90.45 22.85 83.85 16.2 77.2 9.6 68.65 6 59.75 2.2 50.05 2.2 40.3 2.2 31.4 6 22.8 9.6 16.2 16.2 9.6 22.85 5.95 31.45 2.2 40.3 2.2 50.05 2.2 59.75 5.95 68.65 9.6 77.2 16.2 83.85 22.8 90.45 31.4 94.1 40.3 97.85 50.05 97.85 59.75 97.85 68.65 94.1 77.2 90.45 83.85 83.85 90.45 77.2 94.1 68.65 97.85 59.75 97.85 50.05 97.85 40.3 94.1 31.45 M 82.5 17.55 Q 88.85 23.9 92.4 32.15 96 40.7 96 50.05 96 59.4 92.4 67.9 88.85 76.15 82.5 82.5 76.15 88.85 67.9 92.4 59.4 96 50.05 96 40.7 96 32.15 92.4 23.9 88.85 17.55 82.5 11.15 76.15 7.65 67.9 4.05 59.4 4.05 50.05 4.05 40.7 7.65 32.15 11.15 23.9 17.55 17.55 23.9 11.15 32.15 7.7 40.7 4.05 50.05 4.05 59.4 4.05 67.9 7.7 76.15 11.15 82.5 17.55 Z"/>
		</g><mask id="mask">
			<path fill="#FFFFFF" stroke="none" d=" M 96.1 30.5 Q 92.25 21.55 85.35 14.65 78.45 7.7 69.5 3.9 60.2 0 50.05 0 39.85 0 30.55 3.9 21.55 7.7 14.65 14.65 7.75 21.55 3.95 30.5 0 39.85 0 50 0 60.15 3.95 69.45 7.75 78.4 14.65 85.3 21.55 92.25 30.55 96.05 39.85 100 50.05 100 60.2 100 69.5 96.05 78.45 92.25 85.35 85.3 92.25 78.4 96.1 69.45 100 60.15 100 50 100 39.85 96.1 30.5 Z"/>
		</mask><g id="gloss-top">
			<path fill="url(#gloss-top-gradient)" stroke="none" d=" M 81.5 40.8 Q 84.2 36.05 84.2 30.9 84.2 25.7 81.5 21 78.95 16.4 74.2 12.9 64.2 5.45 50.05 5.45 35.8 5.45 25.8 12.9 15.8 20.35 15.8 30.9 15.8 41.45 25.8 48.9 35.8 56.35 50.05 56.35 64.2 56.35 74.2 48.9 78.95 45.4 81.5 40.8 Z"/>
		</g><g id="gloss-left">
			<path fill="url(#gloss-left-gradient)" stroke="none" d=" M 72.2 5.2 Q 61.75 0 50.05 0 39.85 0 30.55 3.95 21.55 7.75 14.65 14.65 7.75 21.6 3.95 30.55 0 39.85 0 50.05 0 59.65 3.55 68.6 7 77.15 13.3 84 13.5 78.65 17.05 71.95 24 58.6 40.6 51.7 57.1 44.85 66.3 24.35 69.15 17.95 70.95 10.95 72.2 5.25 72.2 5.2 Z"/>
		</g><g id="gloss-right">
			<path fill="url(#gloss-right-gradient)" stroke="none" d=" M 96.1 30.55 Q 92.25 21.6 85.35 14.65 78.45 7.75 69.45 3.95 60.15 0 50 0 38.25 0 27.8 5.2 27.8 5.25 29 10.95 30.85 17.95 33.7 24.35 42.9 44.85 59.4 51.7 76 58.6 83 71.95 86.5 78.65 86.7 84 93 77.15 96.45 68.6 100 59.65 100 50.05 100 39.85 96.1 30.55 Z"/>
		</g><g id="x-icon">
			<path fill="#FF0000" fill-opacity="0" stroke="none" d=" M 57.8 42.2 L 42.2 42.2 42.2 57.8 57.8 57.8 57.8 42.2 Z"/>
		</g><linearGradient id="x-background-gradient" x1="0" y1="0" y2="1" x2="0">
			<stop stop-color="#22D3B3" offset="0%"/>
			<stop stop-color="#01163E" offset="100%"/>
		</linearGradient>
			
	<linearGradient id="background-gradient" x1="0" y1="0" y2="1" x2="0" >
		<stop stop-color="#4ADCFD" offset="0%"/>
		<stop stop-color="#0634A7" offset="100%"/>
	</linearGradient>

			
			
			<g transform="scale(1.121465996449729) translate(-0.41499999165534973 -0.4165029525756836)" id="picture"><path d="M73.344 20.78c-8.97 0-16.24 7.27-16.24 16.24s7.27 16.24 16.24 16.24c8.97 0 16.24-7.272 16.24-16.24s-7.27-16.24-16.24-16.24zm-13.36 11.055c.584-1.503 1.408-2.882 2.432-4.09h4.31c-.18.755-.237 1.55-.142 2.367.072.606.23 1.182.447 1.723h-7.04zM73.96 34.49c-2.864.342-5.458-1.703-5.8-4.566-.338-2.862 1.705-5.458 4.566-5.798 2.862-.34 5.457 1.705 5.797 4.566.342 2.864-1.703 5.46-4.564 5.8zm5.704-2.655c.41-1.022.576-2.158.438-3.33-.03-.26-.078-.512-.137-.76h4.305c1.025 1.208 1.85 2.587 2.433 4.09h-7.04z M75.256 29.08c.127 1.058-.63 2.018-1.686 2.144-1.057.125-2.016-.63-2.144-1.687-.127-1.06.63-2.018 1.687-2.143 1.06-.125 2.018.63 2.143 1.686zm-9.344 34.797l5.38 4.082-2.388-12.228h-3.932l2.64 5.916c.147.33.062.717-.214.953l-1.486 1.27zm4.656-8.14l1.936 9.906 1.935-9.905m5.59 0H76.1l-2.387 12.22 5.38-4.08-1.486-1.27c-.273-.237-.36-.624-.215-.954l2.643-5.916z M71.688 70.31l-7.567-5.743c-.19-.15-.31-.38-.32-.63-.01-.243.1-.48.29-.642l1.793-1.533-2.69-6.022h-.013c-2.96 0-5.36 2.397-5.357 5.356v16.096c0 2.96 2.397 5.36 5.358 5.36h8.517V70.308h-.002zm11.824-14.572h-1.69l-2.69 6.022 1.792 1.533c.19.16.29.397.285.644-.01.25-.13.48-.32.63l-7.57 5.74V82.55h10.19c2.96 0 5.354-2.397 5.354-5.358V61.096c0-2.96-2.398-5.358-5.36-5.358zm2.035 20.274H83.12v2.426h-3.29v-2.426h-2.426V72.72h2.426v-2.427h3.293v2.426h2.427v3.29zM53.732 65.047c-5.2 4.254-11.84 6.813-19.07 6.813-16.632 0-30.164-13.53-30.164-30.164 0-16.633 13.532-30.164 30.164-30.164 9.666 0 18.28 4.574 23.802 11.666.93-.998 1.957-1.9 3.065-2.697-6.28-7.94-15.99-13.05-26.87-13.05C15.78 7.45.415 22.81.415 41.697.415 60.58 15.78 75.94 34.662 75.94c7.053 0 13.614-2.146 19.07-5.814v-5.08z M26.47 55.55c-.462.27-.933.558-1.403.847-2.143 1.316-4.36 2.68-6.365 2.68-2.367 0-3.91-1.8-4.588-5.348-2.318-12.128 2.186-20.17 6.37-24.79 1.27-1.4 2.61-2.11 3.987-2.11 3.14 0 5.11 3.61 5.2 7.1.03 1.14.08 2.23.15 3.25l-2.095.93c-.09-1.26-.163-2.65-.202-4.124-.067-2.67-1.49-5.01-3.046-5.01-.734 0-1.56.484-2.392 1.402-3.855 4.256-8 11.69-5.852 22.94.688 3.6 1.987 3.6 2.476 3.6 1.397 0 3.35-1.2 5.24-2.36.483-.296.966-.593 1.443-.87 3.705-2.17 3.866-3.46 3.035-9.06-.01-.05-.073-.47-.166-1.16l2.1-.54c.11.858.19 1.36.19 1.374.82 5.506.986 8.28-4.075 11.24zm25.8-1.82c-.68 3.546-2.223 5.346-4.59 5.346-2.004 0-4.22-1.36-6.365-2.68-.47-.288-.94-.577-1.404-.847-5.06-2.968-4.89-5.74-4.07-11.23.004-.02.08-.53.19-1.4l2.104.54c-.093.7-.16 1.13-.17 1.182-.826 5.587-.67 6.876 3.04 9.046.476.277.958.574 1.44.87 1.89 1.16 3.845 2.36 5.24 2.36.49 0 1.79 0 2.477-3.596 2.15-11.252-1.993-18.687-5.85-22.943-.832-.918-1.66-1.403-2.392-1.403-1.556 0-2.98 2.34-3.048 5.01-.04 1.46-.11 2.844-.2 4.1l-2.096-.927c.064-1.017.115-2.1.145-3.23.09-3.492 2.056-7.104 5.196-7.104 1.376 0 2.718.71 3.986 2.11 4.184 4.617 8.688 12.666 6.37 24.79z M34.766 15.317v22.967l4.254 1.9 3.152-4.06c.113-.142.317-.176.472-.076.153.1.207.3.124.463l-2.55 4.16 1.832.738 2.985-1.834c.155-.082.342-.022.44.117.1.14.084.33-.035.454l-2.052 1.8 3.453 1.29c.18.07.27.263.21.44-.06.18-.24.28-.42.238l-4.67-1.32 2.18 4.62c.075.17.007.373-.155.463-.012 0-.02.007-.035.013-.158.064-.343.01-.437-.137l-2.98-4.942c-.107-.153-.18-.28-.234-.382l-.03-.045-7.03-1.784-7.03 1.784-.034.046c-.053.103-.125.23-.23.384l-2.98 4.94c-.095.148-.28.2-.437.14-.014-.007-.025-.013-.037-.015-.162-.09-.23-.29-.152-.463l2.178-4.62-4.67 1.323c-.183.043-.368-.06-.425-.238-.057-.18.033-.37.207-.44l3.45-1.29-2.05-1.8c-.12-.122-.137-.313-.04-.454.1-.14.287-.2.44-.116l2.987 1.834 1.83-.735-2.55-4.152c-.083-.163-.026-.362.125-.462.154-.1.358-.064.474.077l3.15 4.06 4.254-1.9v-22.8s1.588-.203 3.063-.167z"/></g>
			
	<linearGradient id="picture-gradient" x1="0" y1="0" y2="1" x2="0" >
		<stop stop-color="#ffffff" offset="0%"/>
		<stop stop-color="#ffffff" offset="100%"/>
	</linearGradient>

		</defs>

		

			<use xlink:href="#background" fill="url(#background-gradient)" />

		<use xlink:href="#middle-1" />

			<g mask="url(#mask)">
				<g transform="
				        translate(
                                50 50
)
                            translate(0 0)  scale(0.735)  
                            translate(
                                -50 -50
)">
						<use xlink:href="#picture" fill="url(#picture-gradient)"  />
				</g>
			</g>

		

			<use xlink:href="#gloss-top" opacity="1" />

	</svg>
