
	<svg xmlns="http://www.w3.org/2000/svg" xmlns:xlink="http://www.w3.org/1999/xlink" version="1.1" width="256" height="256" viewBox="0 0 100 100">

		<defs>
			<g id="background">
<path fill="url(#background-gradient)" stroke="none" d=" M 100 100 L 100 0 0 0 0 100 100 100 Z"/>
</g><g id="middle-1">
<path fill="#FFFFFF" stroke="none" d=" M 89.3 10.6 L 89.3 10.55 10.55 10.55 10.55 89.25 10.65 89.25 89.3 89.25 89.3 10.6 Z"/>

<path fill="#000000" fill-opacity="0.4" stroke="none" d=" M 99.95 21.9 L 89.3 10.6 89.3 89.25 10.65 89.25 10.55 89.3 21.25 99.85 99.95 100 99.95 21.9 Z"/>
</g><mask id="mask">
<path fill="#FFFFFF" stroke="none" d=" M 89.4 89.35 L 89.4 10.65 10.65 10.65 10.65 89.35 89.4 89.35 Z"/>
</mask>
			
	<linearGradient id="background-gradient" x1="0" y1="0" y2="1" x2="0" >
		<stop stop-color="#0038f2" offset="0%"/>
		<stop stop-color="#0038f2" offset="100%"/>
	</linearGradient>

			
			
			<g transform="scale(0.7407407407407407) translate(-2.3929977416992188 -5)" id="picture">
    <g stroke-linecap="round" stroke-miterlimit="10">
        <path d="M121.637 23v9" fill="none" stroke-width="3" stroke="#000"/>
        <path d="M22.637 41h18m-9-18l9 18" fill="none" stroke-width="5" stroke="#000"/>
        <path d="M112.637 41l9 9" fill="none" stroke-width="4" stroke="#000"/>
        <path d="M112.637 41l9-9" fill="none" stroke-width="4" stroke="#008F00"/>
        <path d="M103.637 23l9-9m-18 0l9 9m-72 0l9-9m-27 36l9-9m0 0l-9-9m9-18l9 9" fill="none" stroke-width="4" stroke="#000"/>
        <path d="M13.637 14h9m-18 36h9m108 0h9" fill="none" stroke-width="3" stroke="#000"/>
        <path d="M121.637 32h9" fill="none" stroke-width="3" stroke="#008F00"/>
        <path d="M112.637 14h9m-36 0h9m0-9v9m27 36v9m-9-54v9m-72-9v9m-18-9v9m-9 36v9m0-36v9m27-18h9m-45 18h9" fill="none" stroke-width="3" stroke="#000"/>
        <path d="M131.633 20.392c3.516 3.515 3.516 9.21 0 12.726-3.51 3.516-9.21 3.516-12.726 0-3.516-3.515-3.516-9.21 0-12.726 3.515-3.516 9.215-3.516 12.726 0" fill="#ff2300" stroke="#000" stroke-linejoin="round"/>
        <path d="M40.637 41l27 27" fill="none" stroke-width="6" stroke="#000"/>
        <path d="M94.637 41l9-18" fill="none" stroke-width="5" stroke="#000"/>
        <path d="M94.637 41h18" fill="none" stroke-width="5" stroke="#008F00"/>
        <path d="M67.637 140V68" fill="none" stroke-width="7" stroke="#008F00"/>
        <path d="M94.637 41l-27 27" fill="none" stroke-width="6" stroke="#008F00"/>
    </g>
</g>
			
		</defs>

		

			<use xlink:href="#background" fill="url(#background-gradient)" />

		<use xlink:href="#middle-1" />

			<g mask="url(#mask)">
				<g transform="
				        translate(
                                50 50
)
                            translate(0 0)  scale(0.7)  
                            translate(
                                -50 -50
)">
						<use xlink:href="#picture"   />
				</g>
			</g>

		


	</svg>
