
	<svg xmlns="http://www.w3.org/2000/svg" xmlns:xlink="http://www.w3.org/1999/xlink" version="1.1" width="256" height="256" viewBox="0 0 100 100">

		<defs>
			<linearGradient id="middle-1-gradient" gradientUnits="userSpaceOnUse" x1="50" y1="98" x2="50" y2="2" spreadMethod="pad">
			<stop offset="0%" stop-color="#FFFFFF" stop-opacity="0.1"/>
			<stop offset="100%" stop-color="#FFFFFF" stop-opacity="0.5"/>
		</linearGradient><linearGradient id="gloss-top-gradient" gradientUnits="userSpaceOnUse" x1="50" y1="70" x2="50" y2="6" spreadMethod="pad">
			<stop offset="0%" stop-color="#FFFFFF" stop-opacity="0"/>
			<stop offset="100%" stop-color="#FFFFFF" stop-opacity="0.4"/>
		</linearGradient><linearGradient id="gloss-right-gradient" gradientUnits="userSpaceOnUse" x1="37" y1="24" x2="92" y2="57" spreadMethod="pad">
			<stop offset="0%" stop-color="#FFFFFF" stop-opacity="0"/>
			<stop offset="100%" stop-color="#FFFFFF" stop-opacity="0.4"/>
		</linearGradient><linearGradient id="gloss-left-gradient" gradientUnits="userSpaceOnUse" x1="63" y1="57" x2="8" y2="24" spreadMethod="pad">
			<stop offset="0%" stop-color="#FFFFFF" stop-opacity="0"/>
			<stop offset="100%" stop-color="#FFFFFF" stop-opacity="0.4"/>
		</linearGradient><g id="background">
			<path fill="url(#background-gradient)" stroke="none" d=" M 96.1 30.55 Q 92.25 21.6 85.35 14.65 78.45 7.75 69.5 3.95 60.2 0 50.05 0 39.85 0 30.55 3.95 21.55 7.75 14.65 14.65 7.75 21.6 3.95 30.55 0 39.85 0 50.05 0 60.2 3.95 69.5 7.75 78.45 14.65 85.35 21.55 92.25 30.55 96.1 39.85 100 50.05 100 60.2 100 69.5 96.1 78.45 92.25 85.35 85.35 92.25 78.45 96.1 69.5 100 60.2 100 50.05 100 39.85 96.1 30.55 Z"/>
		</g><g id="middle-1">
			<path fill="url(#middle-1-gradient)" stroke="none" d=" M 94.1 31.45 Q 90.45 22.85 83.85 16.2 77.2 9.6 68.65 6 59.75 2.2 50.05 2.2 40.3 2.2 31.4 6 22.8 9.6 16.2 16.2 9.6 22.85 5.95 31.45 2.2 40.3 2.2 50.05 2.2 59.75 5.95 68.65 9.6 77.2 16.2 83.85 22.8 90.45 31.4 94.1 40.3 97.85 50.05 97.85 59.75 97.85 68.65 94.1 77.2 90.45 83.85 83.85 90.45 77.2 94.1 68.65 97.85 59.75 97.85 50.05 97.85 40.3 94.1 31.45 M 82.5 17.55 Q 88.85 23.9 92.4 32.15 96 40.7 96 50.05 96 59.4 92.4 67.9 88.85 76.15 82.5 82.5 76.15 88.85 67.9 92.4 59.4 96 50.05 96 40.7 96 32.15 92.4 23.9 88.85 17.55 82.5 11.15 76.15 7.65 67.9 4.05 59.4 4.05 50.05 4.05 40.7 7.65 32.15 11.15 23.9 17.55 17.55 23.9 11.15 32.15 7.7 40.7 4.05 50.05 4.05 59.4 4.05 67.9 7.7 76.15 11.15 82.5 17.55 Z"/>
		</g><mask id="mask">
			<path fill="#FFFFFF" stroke="none" d=" M 96.1 30.5 Q 92.25 21.55 85.35 14.65 78.45 7.7 69.5 3.9 60.2 0 50.05 0 39.85 0 30.55 3.9 21.55 7.7 14.65 14.65 7.75 21.55 3.95 30.5 0 39.85 0 50 0 60.15 3.95 69.45 7.75 78.4 14.65 85.3 21.55 92.25 30.55 96.05 39.85 100 50.05 100 60.2 100 69.5 96.05 78.45 92.25 85.35 85.3 92.25 78.4 96.1 69.45 100 60.15 100 50 100 39.85 96.1 30.5 Z"/>
		</mask><g id="gloss-top">
			<path fill="url(#gloss-top-gradient)" stroke="none" d=" M 81.5 40.8 Q 84.2 36.05 84.2 30.9 84.2 25.7 81.5 21 78.95 16.4 74.2 12.9 64.2 5.45 50.05 5.45 35.8 5.45 25.8 12.9 15.8 20.35 15.8 30.9 15.8 41.45 25.8 48.9 35.8 56.35 50.05 56.35 64.2 56.35 74.2 48.9 78.95 45.4 81.5 40.8 Z"/>
		</g><g id="gloss-left">
			<path fill="url(#gloss-left-gradient)" stroke="none" d=" M 72.2 5.2 Q 61.75 0 50.05 0 39.85 0 30.55 3.95 21.55 7.75 14.65 14.65 7.75 21.6 3.95 30.55 0 39.85 0 50.05 0 59.65 3.55 68.6 7 77.15 13.3 84 13.5 78.65 17.05 71.95 24 58.6 40.6 51.7 57.1 44.85 66.3 24.35 69.15 17.95 70.95 10.95 72.2 5.25 72.2 5.2 Z"/>
		</g><g id="gloss-right">
			<path fill="url(#gloss-right-gradient)" stroke="none" d=" M 96.1 30.55 Q 92.25 21.6 85.35 14.65 78.45 7.75 69.45 3.95 60.15 0 50 0 38.25 0 27.8 5.2 27.8 5.25 29 10.95 30.85 17.95 33.7 24.35 42.9 44.85 59.4 51.7 76 58.6 83 71.95 86.5 78.65 86.7 84 93 77.15 96.45 68.6 100 59.65 100 50.05 100 39.85 96.1 30.55 Z"/>
		</g><g id="x-icon">
			<path fill="#FF0000" fill-opacity="0" stroke="none" d=" M 57.8 42.2 L 42.2 42.2 42.2 57.8 57.8 57.8 57.8 42.2 Z"/>
		</g><linearGradient id="x-background-gradient" x1="0" y1="0" y2="1" x2="0">
			<stop stop-color="#22D3B3" offset="0%"/>
			<stop stop-color="#01163E" offset="100%"/>
		</linearGradient>
			
	<linearGradient id="background-gradient" x1="0" y1="0" y2="1" x2="0" >
		<stop stop-color="#4ADCFD" offset="0%"/>
		<stop stop-color="#0634A7" offset="100%"/>
	</linearGradient>

			
			
			<g transform="scale(1.0526426533096782) translate(-2.271008014678955 -2.5009965896606445)" id="picture"><path d="M46.136 95.435c-7.193 0-15.49-.114-22.936-1.488-4.984-.923-11.938-2.666-14.756-7.145-1.434-2.28-1.687-5.032-.77-8.41 1.312-4.835 7.437-8.565 13.074-11.683l.44-.25c1.75-.97 5.01-2.78 7.99-3.98.32-.13.653-.254.995-.383 2.664-1.01 6.313-2.397 6.687-6.257.28-2.9-1.148-4.71-2.66-6.625-.343-.435-.7-.886-1.052-1.37-5.515-7.577-7.917-15.413-7.345-23.953C26.52 13.247 33.2 5.91 43.24 4.754c1.087-.124 2.167-.187 3.212-.187 6.028 0 11.112 2.056 14.7 5.945 4.113 4.463 5.953 10.953 5.32 18.77-.354 4.357-2.178 10.01-4.646 14.408-.61 1.082-1.445 2.168-2.33 3.317-2.296 2.98-4.897 6.36-3.804 10.52.823 3.122 5.68 4.915 9.226 6.226.758.28 1.424.525 1.916.74 2.394 1.05 5.71 2.514 8.845 4.41.77-.375 1.59-.677 2.44-.897-3.64-2.405-7.65-4.17-10.46-5.404-.52-.23-1.23-.49-2.03-.787-2.77-1.02-7.4-2.73-7.95-4.813-.835-3.18 1.243-5.878 3.44-8.734.89-1.158 1.815-2.354 2.497-3.567 2.644-4.71 4.523-10.55 4.904-15.25.683-8.41-1.344-15.44-5.86-20.33-3.98-4.33-9.59-6.62-16.21-6.62-1.122 0-2.283.07-3.447.204-11.093 1.274-18.475 9.346-19.26 21.06-.606 9.044 1.924 17.32 7.735 25.306.37.507.74.98 1.1 1.435 1.408 1.786 2.426 3.077 2.228 5.148-.25 2.582-2.852 3.568-5.365 4.523-.35.134-.69.266-1.03.398-3.1 1.246-6.43 3.094-8.22 4.086l-.43.242c-6.01 3.32-12.55 7.334-14.072 12.948-1.06 3.912-.718 7.294 1.02 10.052 3.25 5.164 10.76 7.082 16.125 8.075C30.443 97.38 38.85 97.5 46.137 97.5c11.09 0 23.463-.534 31.64-3.636-1.01-.29-1.97-.695-2.864-1.203-9.228 2.77-22.475 2.78-28.777 2.78z M81.497 67.555c-1.167 0-2.294.165-3.374.446-.85.23-1.667.53-2.444.9-4.5 2.17-7.61 6.77-7.61 12.08 0 5.01 2.76 9.38 6.84 11.69.89.51 1.85.91 2.86 1.204 1.18.344 2.43.537 3.72.537 7.4 0 13.423-6.022 13.423-13.424 0-7.402-6.024-13.423-13.425-13.423zm0 24.782c-6.264 0-11.36-5.096-11.36-11.358 0-6.27 5.097-11.36 11.36-11.36 6.263 0 11.358 5.09 11.358 11.36 0 6.26-5.095 11.35-11.358 11.35z M86.57 75.694c-.328-.33-.903-.327-1.223 0l-5.965 5.965-1.738-1.75c-.33-.326-.9-.325-1.222 0l-1.386 1.39c-.164.165-.254.38-.253.61 0 .23.09.447.254.61l3.732 3.735c.16.165.38.255.61.255.23 0 .44-.09.61-.252l7.96-7.965c.33-.338.33-.885-.006-1.22L86.56 75.69zm-7.187 9.718l-3.496-3.495 1.147-1.148 2.07 2.07.42.13 6.435-6.436 1.14 1.147-7.726 7.72z"/></g>
			
	<linearGradient id="picture-gradient" x1="0" y1="0" y2="1" x2="0" >
		<stop stop-color="#ffffff" offset="0%"/>
		<stop stop-color="#ffffff" offset="100%"/>
	</linearGradient>

		</defs>

		

			<use xlink:href="#background" fill="url(#background-gradient)" />

		<use xlink:href="#middle-1" />

			<g mask="url(#mask)">
				<g transform="
				        translate(
                                50 50
)
                            translate(0 0)  scale(0.7)  
                            translate(
                                -50 -50
)">
						<use xlink:href="#picture" fill="url(#picture-gradient)"  />
				</g>
			</g>

		

			<use xlink:href="#gloss-top" opacity="1" />

	</svg>
