
	<svg xmlns="http://www.w3.org/2000/svg" xmlns:xlink="http://www.w3.org/1999/xlink" version="1.1" width="256" height="256" viewBox="0 0 100 100">

		<defs>
			<linearGradient id="middle-1-gradient" gradientUnits="userSpaceOnUse" x1="50" y1="98" x2="50" y2="2" spreadMethod="pad">
			<stop offset="0%" stop-color="#FFFFFF" stop-opacity="0.1"/>
			<stop offset="100%" stop-color="#FFFFFF" stop-opacity="0.5"/>
		</linearGradient><linearGradient id="gloss-top-gradient" gradientUnits="userSpaceOnUse" x1="50" y1="70" x2="50" y2="6" spreadMethod="pad">
			<stop offset="0%" stop-color="#FFFFFF" stop-opacity="0"/>
			<stop offset="100%" stop-color="#FFFFFF" stop-opacity="0.4"/>
		</linearGradient><linearGradient id="gloss-right-gradient" gradientUnits="userSpaceOnUse" x1="37" y1="24" x2="92" y2="57" spreadMethod="pad">
			<stop offset="0%" stop-color="#FFFFFF" stop-opacity="0"/>
			<stop offset="100%" stop-color="#FFFFFF" stop-opacity="0.4"/>
		</linearGradient><linearGradient id="gloss-left-gradient" gradientUnits="userSpaceOnUse" x1="63" y1="57" x2="8" y2="24" spreadMethod="pad">
			<stop offset="0%" stop-color="#FFFFFF" stop-opacity="0"/>
			<stop offset="100%" stop-color="#FFFFFF" stop-opacity="0.4"/>
		</linearGradient><g id="background">
			<path fill="url(#background-gradient)" stroke="none" d=" M 96.1 30.55 Q 92.25 21.6 85.35 14.65 78.45 7.75 69.5 3.95 60.2 0 50.05 0 39.85 0 30.55 3.95 21.55 7.75 14.65 14.65 7.75 21.6 3.95 30.55 0 39.85 0 50.05 0 60.2 3.95 69.5 7.75 78.45 14.65 85.35 21.55 92.25 30.55 96.1 39.85 100 50.05 100 60.2 100 69.5 96.1 78.45 92.25 85.35 85.35 92.25 78.45 96.1 69.5 100 60.2 100 50.05 100 39.85 96.1 30.55 Z"/>
		</g><g id="middle-1">
			<path fill="url(#middle-1-gradient)" stroke="none" d=" M 94.1 31.45 Q 90.45 22.85 83.85 16.2 77.2 9.6 68.65 6 59.75 2.2 50.05 2.2 40.3 2.2 31.4 6 22.8 9.6 16.2 16.2 9.6 22.85 5.95 31.45 2.2 40.3 2.2 50.05 2.2 59.75 5.95 68.65 9.6 77.2 16.2 83.85 22.8 90.45 31.4 94.1 40.3 97.85 50.05 97.85 59.75 97.85 68.65 94.1 77.2 90.45 83.85 83.85 90.45 77.2 94.1 68.65 97.85 59.75 97.85 50.05 97.85 40.3 94.1 31.45 M 82.5 17.55 Q 88.85 23.9 92.4 32.15 96 40.7 96 50.05 96 59.4 92.4 67.9 88.85 76.15 82.5 82.5 76.15 88.85 67.9 92.4 59.4 96 50.05 96 40.7 96 32.15 92.4 23.9 88.85 17.55 82.5 11.15 76.15 7.65 67.9 4.05 59.4 4.05 50.05 4.05 40.7 7.65 32.15 11.15 23.9 17.55 17.55 23.9 11.15 32.15 7.7 40.7 4.05 50.05 4.05 59.4 4.05 67.9 7.7 76.15 11.15 82.5 17.55 Z"/>
		</g><mask id="mask">
			<path fill="#FFFFFF" stroke="none" d=" M 96.1 30.5 Q 92.25 21.55 85.35 14.65 78.45 7.7 69.5 3.9 60.2 0 50.05 0 39.85 0 30.55 3.9 21.55 7.7 14.65 14.65 7.75 21.55 3.95 30.5 0 39.85 0 50 0 60.15 3.95 69.45 7.75 78.4 14.65 85.3 21.55 92.25 30.55 96.05 39.85 100 50.05 100 60.2 100 69.5 96.05 78.45 92.25 85.35 85.3 92.25 78.4 96.1 69.45 100 60.15 100 50 100 39.85 96.1 30.5 Z"/>
		</mask><g id="gloss-top">
			<path fill="url(#gloss-top-gradient)" stroke="none" d=" M 81.5 40.8 Q 84.2 36.05 84.2 30.9 84.2 25.7 81.5 21 78.95 16.4 74.2 12.9 64.2 5.45 50.05 5.45 35.8 5.45 25.8 12.9 15.8 20.35 15.8 30.9 15.8 41.45 25.8 48.9 35.8 56.35 50.05 56.35 64.2 56.35 74.2 48.9 78.95 45.4 81.5 40.8 Z"/>
		</g><g id="gloss-left">
			<path fill="url(#gloss-left-gradient)" stroke="none" d=" M 72.2 5.2 Q 61.75 0 50.05 0 39.85 0 30.55 3.95 21.55 7.75 14.65 14.65 7.75 21.6 3.95 30.55 0 39.85 0 50.05 0 59.65 3.55 68.6 7 77.15 13.3 84 13.5 78.65 17.05 71.95 24 58.6 40.6 51.7 57.1 44.85 66.3 24.35 69.15 17.95 70.95 10.95 72.2 5.25 72.2 5.2 Z"/>
		</g><g id="gloss-right">
			<path fill="url(#gloss-right-gradient)" stroke="none" d=" M 96.1 30.55 Q 92.25 21.6 85.35 14.65 78.45 7.75 69.45 3.95 60.15 0 50 0 38.25 0 27.8 5.2 27.8 5.25 29 10.95 30.85 17.95 33.7 24.35 42.9 44.85 59.4 51.7 76 58.6 83 71.95 86.5 78.65 86.7 84 93 77.15 96.45 68.6 100 59.65 100 50.05 100 39.85 96.1 30.55 Z"/>
		</g><g id="x-icon">
			<path fill="#FF0000" fill-opacity="0" stroke="none" d=" M 57.8 42.2 L 42.2 42.2 42.2 57.8 57.8 57.8 57.8 42.2 Z"/>
		</g><linearGradient id="x-background-gradient" x1="0" y1="0" y2="1" x2="0">
			<stop stop-color="#22D3B3" offset="0%"/>
			<stop stop-color="#01163E" offset="100%"/>
		</linearGradient>
			
	<linearGradient id="background-gradient" x1="0" y1="0" y2="1" x2="0" >
		<stop stop-color="#4ADCFD" offset="0%"/>
		<stop stop-color="#0634A7" offset="100%"/>
	</linearGradient>

			
			
			<g transform="scale(1.0527423330573076) translate(-2.276496410369873 -2.5019993782043457)" id="picture"><path d="M46.136 95.435c-7.193 0-15.49-.114-22.935-1.488-4.98-.923-11.93-2.666-14.75-7.145-1.43-2.28-1.683-5.032-.77-8.41 1.31-4.835 7.44-8.565 13.078-11.683l.44-.25c1.75-.97 5.01-2.78 7.99-3.98.32-.13.654-.254.996-.383 2.664-1.01 6.313-2.397 6.687-6.257.28-2.9-1.15-4.71-2.66-6.625-.343-.435-.7-.886-1.052-1.37-5.514-7.577-7.916-15.413-7.344-23.953.71-10.65 7.39-17.988 17.43-19.143 1.088-.126 2.17-.19 3.214-.19 6.027 0 11.11 2.057 14.698 5.946 4.12 4.462 5.96 10.952 5.327 18.77-.355 4.356-2.18 10.01-4.647 14.41-.61 1.08-1.445 2.165-2.33 3.314-2.296 2.98-4.897 6.36-3.804 10.52.824 3.123 5.68 4.916 9.227 6.227.76.28 1.424.526 1.916.74 2.393 1.05 5.71 2.515 8.844 4.41.777-.374 1.594-.676 2.444-.896-3.635-2.403-7.65-4.17-10.46-5.402-.52-.23-1.226-.49-2.027-.786C62.877 60.79 58.25 59.08 57.7 57c-.834-3.18 1.244-5.876 3.443-8.73.89-1.16 1.814-2.356 2.496-3.568 2.643-4.707 4.522-10.55 4.903-15.25.685-8.41-1.342-15.44-5.86-20.336-3.994-4.33-9.6-6.614-16.22-6.614-1.123 0-2.283.068-3.45.203-11.1 1.274-18.48 9.344-19.264 21.057-.607 9.044 1.923 17.323 7.734 25.306.37.5.74.98 1.1 1.43 1.408 1.784 2.425 3.075 2.227 5.15-.25 2.58-2.85 3.57-5.364 4.52-.35.134-.7.266-1.03.4-3.1 1.245-6.43 3.093-8.22 4.085l-.434.24c-6.007 3.32-12.545 7.336-14.07 12.95-1.06 3.91-.716 7.294 1.018 10.05 3.25 5.166 10.76 7.084 16.13 8.077 7.617 1.404 16.026 1.522 23.31 1.522 11.09 0 23.46-.534 31.64-3.636-1.008-.29-1.968-.694-2.863-1.2-9.225 2.77-22.472 2.773-28.774 2.773z M81.497 67.555c-1.167 0-2.294.165-3.374.446-.85.23-1.667.53-2.444.9-4.5 2.17-7.61 6.77-7.61 12.08 0 5.01 2.76 9.38 6.84 11.69.89.51 1.85.91 2.86 1.204 1.18.344 2.43.537 3.72.537 7.4 0 13.423-6.022 13.423-13.424 0-7.402-6.024-13.423-13.425-13.423zm0 24.782c-.135 0-.264-.015-.396-.02-1.18-.042-2.32-.264-3.38-.642-4.403-1.563-7.573-5.763-7.573-10.697 0-4.958 3.198-9.172 7.634-10.72.846-.294 1.733-.498 2.656-.585.35-.033.706-.055 1.07-.055 6.26 0 11.355 5.096 11.355 11.36 0 6.263-5.095 11.36-11.36 11.36z M87.255 78.98h-3.76v-3.76c0-.42-.343-.76-.764-.76h-2.46c-.42 0-.76.34-.76.76v3.76h-3.77c-.418 0-.758.34-.758.76v2.475c0 .422.34.76.757.76h3.76v3.765c0 .42.34.757.76.757h2.47c.42 0 .76-.338.76-.757v-3.765h3.76c.417 0 .76-.338.76-.76V79.74c0-.42-.343-.76-.76-.76z"/></g>
			
	<linearGradient id="picture-gradient" x1="0" y1="0" y2="1" x2="0" >
		<stop stop-color="#ffffff" offset="0%"/>
		<stop stop-color="#ffffff" offset="100%"/>
	</linearGradient>

		</defs>

		

			<use xlink:href="#background" fill="url(#background-gradient)" />

		<use xlink:href="#middle-1" />

			<g mask="url(#mask)">
				<g transform="
				        translate(
                                50 50
)
                            translate(0 0)  scale(0.7)  
                            translate(
                                -50 -50
)">
						<use xlink:href="#picture" fill="url(#picture-gradient)"  />
				</g>
			</g>

		

			<use xlink:href="#gloss-top" opacity="1" />

	</svg>
